<?xml version="1.0" encoding="UTF-8" standalone="no"?>
<svg
   version="1.1"
   viewBox="0 0 752.55505 746.81323"
   id="svg38"
   sodipodi:docname="aphrodite.svg"
   width="752.55505"
   height="746.81323"
   inkscape:version="1.1.2 (0a00cf5339, 2022-02-04)"
   xmlns:inkscape="http://www.inkscape.org/namespaces/inkscape"
   xmlns:sodipodi="http://sodipodi.sourceforge.net/DTD/sodipodi-0.dtd"
   xmlns="http://www.w3.org/2000/svg"
   xmlns:svg="http://www.w3.org/2000/svg">
  <defs
     id="defs42" />
  <sodipodi:namedview
     id="namedview40"
     pagecolor="#ffffff"
     bordercolor="#666666"
     borderopacity="1.0"
     inkscape:pageshadow="2"
     inkscape:pageopacity="0.0"
     inkscape:pagecheckerboard="0"
     showgrid="false"
     inkscape:zoom="0.85253906"
     inkscape:cx="372.41695"
     inkscape:cy="378.28179"
     inkscape:window-width="2490"
     inkscape:window-height="1376"
     inkscape:window-x="70"
     inkscape:window-y="140"
     inkscape:window-maximized="1"
     inkscape:current-layer="svg38" />
  <g
     stroke-width="2"
     fill="none"
     stroke-linecap="butt"
     id="g18"
     transform="translate(-139.45104,-133.62843)"
     style="stroke:none">
    <path
       stroke="#7e7f7f"
       vector-effect="non-scaling-stroke"
       d="m 345.09,837.63 c 39.21,19.95 80.81,32.86 124.8,38.72 25.01,3.33 50.63,3.97 76.88,1.92 60.67,-4.75 116.92,-23.12 168.75,-55.13 24.95,-15.4 48.44,-34.38 70.49,-56.95 14.89,-15.25 28.36,-31.67 40.41,-49.28 34.05,-49.74 54.72,-105.08 62.01,-166.01 1.95,-16.25 2.79,-32.62 2.53,-49.09 C 889.99,439.72 874.7,381.66 845.09,327.63 837,312.86 826.82,297.54 814.57,281.67 788.82,248.31 758.1,218.65 723.23,195.83 676.86,165.48 626.45,146.39 572,138.54 c -31.75,-4.58 -63.12,-5.14 -94.09,-1.67 -33.57,3.76 -65.26,11.37 -95.07,22.82 -70.1,26.93 -127.02,70.36 -170.75,130.27 -48.72,66.75 -72.59,141.61 -71.61,224.56 0.08,6.83 0.4,13.66 0.97,20.47 1.83,21.81 5.1,42.03 9.82,60.65 10,39.54 26.41,78.26 48.87,112.57 29.22,44.65 66.02,81.23 110.41,109.75 10.43,6.71 21.94,13.26 34.54,19.67"
       id="path2"
       style="stroke:none" />
    <path
       stroke="#7e7f7f"
       vector-effect="non-scaling-stroke"
       d="m 554.44,464.29 c -0.4,-0.48 -0.29,-0.71 0.33,-0.69 8.96,0.23 17.34,1.4 25.13,3.53 6.28,1.72 12.14,4.6 17.2,8.73 0.84,0.69 1.7,0.71 2.57,0.06 10.38,-7.72 11.59,-21.68 -2.78,-25.71 -4.4,-1.23 -8.97,-1.88 -13.72,-1.93 -13.2,-0.15 -24.44,0.31 -33.72,1.37 -8.93,1.03 -16.28,4.46 -24.01,8.86 -25.07,14.26 -46.61,32.38 -64.62,54.37 -36.12,44.06 -45.78,102.56 -37.07,157.75 5.74,36.42 17.73,71.97 36.68,103.01 0.1,0.17 0.05,0.4 -0.11,0.51 -13.25,9.24 -28.21,13.93 -44.88,14.08 -16.86,0.14 -33.33,-4.06 -48.84,-10.83 -38.86,-16.98 -71.82,-45.4 -98.07,-79.37 -23.27,-30.11 -41.46,-63.92 -54.59,-101.44 -2.31,-6.61 -4.26,-13.08 -5.86,-19.4 -6.27,-24.77 -9.84,-48.23 -10.7,-70.38 -1.96,-50.25 5.74,-99.25 23.11,-146.98 0.46,-1.27 0.33,-1.33 -0.38,-0.18 -0.54,0.87 -1.04,1.77 -1.49,2.7 -4.31,8.83 -8.51,18.22 -12.59,28.19 -19.89,48.53 -26.74,99.72 -20.55,153.55 5.33,46.36 20.31,89.65 43.7,129.59 16.42,28.05 37.62,53.85 63.6,77.41 4.83,4.39 9.83,8.56 14.98,12.49 55.17,42.16 121,67.84 190.05,72.26 36.14,2.31 72.34,-1.39 108.59,-11.09 6.43,-1.72 12.8,-3.68 19.11,-5.88 51.44,-17.9 95.78,-46.46 133.02,-85.69 40.61,-42.76 67.6,-92.71 80.99,-149.85 20.98,-89.58 3.97,-185.18 -48.06,-260.37 -19.15,-27.67 -42.26,-52.48 -69.35,-74.43 -28.89,-23.41 -60.99,-40.94 -96.3,-52.57 -6.56,-2.16 -15.08,-4.72 -25.57,-7.68 -1.13,-0.32 -3.77,-0.89 -7.92,-1.7 -0.03,-0.01 -0.05,0 -0.06,0.03 -0.01,0.01 -0.01,0.03 -0.01,0.05 -0.02,0.06 -0.01,0.1 0.04,0.11 13.6,4.73 26.3,9.97 38.09,15.74 25.88,12.67 48.72,28.01 68.51,46.04 22.54,20.52 41.18,43.52 55.92,68.99 11.43,19.75 20.16,41.11 26.2,64.06 5.11,19.45 8.32,39.49 8.8,59.39 1.26,52.4 -11.99,105.05 -40.01,149.28 -17.28,27.28 -38.49,50.3 -63.62,69.06 -25.41,18.97 -53.6,32.08 -84.56,39.33 -31.31,7.34 -63.49,7.27 -93.8,-4.07 -0.31,-0.11 -0.51,-0.33 -0.59,-0.65 -1.74,-6.79 -3.21,-13.98 -4.4,-21.55 -0.75,-4.8 -2,-9.35 -5.54,-12.87 -3.89,-3.86 -7.41,-7.53 -10.57,-11.01 -13.32,-14.68 -19.99,-33.38 -16.75,-53.13 0.08,-0.51 0.7,-0.71 1.07,-0.35 2.9,2.87 5.75,5.56 8.55,8.07 17.67,15.84 37.92,27.51 60.76,35.01 7.3,2.41 14.67,3.23 22.11,2.48 12.69,-1.27 20.25,-11.61 17.34,-24.07 -0.71,-3.05 -2.17,-5.93 -3.48,-8.83 -1.66,-3.67 -0.74,-6.16 2.77,-7.49 2.07,-0.79 4.6,-0.78 7.61,0.01 6.52,1.71 7.44,-5.53 5.62,-9.69 -2.78,-6.35 -12.62,-7.04 -18.45,-7.45 -3.09,-0.22 -3.21,-0.95 -0.38,-2.2 0.85,-0.37 1.65,-0.85 2.41,-1.44 3.7,-2.84 9.35,-4.11 14.13,-4.44 5.15,-0.34 9.39,1.81 13.21,5.05 0.41,0.35 1.04,0.26 1.33,-0.2 3.24,-5.02 0.21,-13.66 -3.03,-18.12 -1.69,-2.32 -3.31,-4.74 -4.86,-7.27 -0.59,-0.97 0.03,-2.22 1.16,-2.33 7.27,-0.67 14.21,0.69 20.81,4.07 3.42,1.75 6.79,3.44 10.11,5.05 6.18,3 12.68,0 12.91,-7.32 0.23,-7.83 0.57,-17.34 1.01,-28.52 0.86,-21.97 4.4,-43.44 10.61,-64.41 4.04,-13.64 8.21,-28.47 10.55,-41.23 2.21,-12 3.66,-24.13 4.35,-36.4 0.03,-0.61 -0.17,-0.71 -0.62,-0.29 -8.3,7.73 -16.85,15.04 -26.51,20.94 -9.98,6.09 -19.93,11.01 -29.86,14.75 -20.19,7.61 -39.24,15.41 -57.17,23.38 -0.14,0.07 -0.24,0.18 -0.31,0.33 -0.14,0.36 -0.02,0.5 0.35,0.41 16.54,-3.83 32.49,-5.5 47.85,-5.02 7.06,0.22 13.55,1.54 19.46,3.96 12.57,5.13 18.71,20.77 10.16,32.19 -1.95,2.6 -3.7,4.53 -5.25,5.8 -6.33,5.19 -14.18,11.25 -23.53,18.19 -1.95,1.44 -3.53,3.1 -6.25,1.77 -7.25,-3.55 -12.74,-8.14 -16.49,-13.77 -2.07,-3.11 -4.13,-6.15 -6.19,-9.14 -4.07,-5.89 -11.46,-9.71 -18.4,-11.91 -0.4,-0.13 -0.73,-0.35 -0.99,-0.66"
       id="path4"
       style="stroke:none" />
    <path
       stroke="#7e7f7f"
       vector-effect="non-scaling-stroke"
       d="m 560.89,237.75 c -25.94,-10.1 -52.13,-14.69 -78.57,-13.77 -38.29,1.32 -74.76,13.65 -101.28,41.35 -15.14,15.81 -24.6,35.97 -24.02,57.94 0.03,1.07 0.43,1.23 1.2,0.48 4.97,-4.85 9.94,-9.41 14.91,-13.68 16.45,-14.11 35.82,-21.68 58.11,-22.73 13.61,-0.63 27.05,1.25 40.3,5.64 8.59,2.85 17.21,5.88 25.85,9.11 26.14,9.75 54.59,10.44 81.17,-0.18 11.14,-4.45 22.84,-9.32 34.14,-11.91 8.17,-1.87 16.26,-2.79 24.27,-2.78 1.17,0 1.33,-0.4 0.46,-1.19 -22.48,-20.72 -48.42,-37.33 -76.54,-48.28"
       id="path6"
       style="stroke:none" />
    <path
       stroke="#7e7f7f"
       vector-effect="non-scaling-stroke"
       d="m 536.27,346.78 c 22.11,10.63 44.89,13.78 68.34,9.45 25.36,-4.69 48.49,-18.25 65.74,-37.41 0.93,-1.04 1.76,-2.11 2.49,-3.22 0.38,-0.59 0.31,-1.12 -0.2,-1.59 -16.5,-14.97 -42.94,-10.86 -62.04,-1.96 -8.33,3.89 -16.12,8.41 -24.47,11.66 -15.41,5.99 -31.16,8.57 -47.25,7.73 -5.94,-0.31 -12.45,-1.23 -19.54,-2.75 -7.78,-1.67 -14.06,-3.35 -18.84,-5.04 -10.31,-3.67 -20.43,-7.24 -30.38,-10.71 -16.91,-5.91 -33.78,-7.63 -50.87,-3.86 -14.87,3.29 -27.02,10.71 -38.05,21.11 -7.94,7.48 -16.13,15.35 -25.72,20.29 -10.37,5.33 -23.06,7.21 -33.7,12.37 -22.05,10.69 -32.54,32.19 -33.26,56.23 -0.46,15.4 1.47,30.14 5.8,44.21 2.81,9.17 6.53,16.83 11.15,23 9.89,13.21 22.83,20.29 38.82,21.25 9.22,0.56 19.33,-1.62 26.96,-6.08 7.3,-4.27 12.88,-7.31 16.75,-9.12 10.44,-4.89 22.23,-6.44 35.36,-4.66 12.3,1.67 24.12,3.42 36.29,0.21 1.66,-0.44 1.63,-0.71 -0.08,-0.8 -13.91,-0.76 -27.03,-5.16 -39.92,-10.2 -9.31,-3.63 -18.53,-5.06 -27.65,-4.28 -8.92,0.76 -17.86,3.72 -26.83,6 -15.26,3.87 -32.02,1.38 -43.32,-9.62 -11.12,-10.83 -15.93,-24.4 -14.44,-40.7 1.84,-20.18 15.99,-35.6 35.28,-41.61 4.34,-1.35 8.76,-2.52 13.27,-3.49 12.93,-2.81 24.42,-8.66 34.45,-17.57 8.17,-7.24 15.93,-14.95 25.08,-21.6 16.02,-11.64 36.99,-17.15 56.58,-16.66 14.23,0.35 28.5,3.6 42.82,9.75 7.99,3.43 15.11,6.66 21.38,9.67"
       id="path8"
       style="stroke:none" />
    <path
       stroke="#7e7f7f"
       vector-effect="non-scaling-stroke"
       d="m 427.64,388.33 c -0.16,-0.47 -0.08,-0.91 0.24,-1.32 2.71,-3.48 6.58,-6.79 10.31,-9.13 25.07,-15.8 54.92,-15.99 82.39,-5.29 11.28,4.39 21.19,7.49 29.73,9.28 12.57,2.64 25.88,3.17 39.92,1.6 21.8,-2.43 41.44,-9.81 58.91,-22.14 12.2,-8.61 22.76,-21.72 26.89,-35.98 0.49,-1.71 0.24,-1.82 -0.75,-0.35 -2.74,4.05 -6.31,7.34 -9.85,10.73 -13.88,13.28 -29.38,22.63 -46.49,28.06 -24.56,7.79 -49.21,7.42 -73.96,-1.11 -9.43,-3.25 -18.92,-6.56 -28.47,-9.94 -10.51,-3.71 -21.48,-5.87 -32.91,-6.48 -19.45,-1.04 -36.66,4.24 -51.62,15.84 -12.08,9.35 -22.51,21.6 -35.54,30.61 -0.8,0.55 -0.72,0.78 0.25,0.68 5.81,-0.6 11.49,-0.2 17.38,0.04 11.75,0.46 23.54,2.18 35.39,5.16 12.44,3.13 25.06,8.1 37.23,11.37 20.93,5.62 42.04,6.33 63.31,2.14 7.84,-1.54 15.18,-4.13 22.02,-7.76 1.13,-0.59 1.06,-0.8 -0.2,-0.61 -19.69,2.93 -38.81,-0.05 -57.36,-8.95 -10.78,-5.16 -21.18,-10.45 -33.06,-12.46 -17.52,-2.97 -36.25,0.16 -52.88,6.42 -0.36,0.14 -0.75,-0.05 -0.88,-0.41"
       id="path10"
       style="stroke:none" />
    <path
       stroke="#7e7f7f"
       vector-effect="non-scaling-stroke"
       d="m 275.78,384.49 c 7.68,-19.49 21.35,-32.88 41,-40.17 6.63,-2.47 13.58,-4.86 20.84,-7.17 1.51,-0.49 1.52,-1 0.02,-1.53 -21.98,-7.77 -46.35,-2.73 -63.02,13.08 -23.08,21.88 -26.98,58.18 -4.2,81.95 0.68,0.71 0.96,0.58 0.84,-0.4 -1.85,-15.09 -1.01,-31.73 4.52,-45.76"
       id="path12"
       style="stroke:none" />
    <path
       stroke="#7e7f7f"
       vector-effect="non-scaling-stroke"
       d="m 365.01,443.06 c 8.77,-8.24 22.27,-12 34.3,-12.71 11.48,-0.67 22.5,1.04 33.24,4.78 4.65,1.62 9.35,3.05 14.08,4.29 17.06,4.46 36.38,3.21 52.73,-4.95 0.9,-0.45 0.85,-0.7 -0.16,-0.73 -6.4,-0.23 -12.94,-1.32 -19.63,-3.27 -5.41,-1.58 -10.81,-3.25 -16.08,-5.31 -8.14,-3.19 -16.19,-5.92 -24.14,-8.18 -31.44,-8.92 -74.57,-6.06 -95.05,23.37 -4.27,6.13 -8.74,17.37 1.26,20.52 2.05,0.65 4.3,0.84 6.73,0.58 9.38,-0.99 17.69,-4.13 26.4,-6.66 11.77,-3.42 23.63,-3.22 35.58,0.6 8.52,2.72 16.2,7.64 24.65,10.25 14.77,4.57 29.46,4.05 44.06,-1.56 2.86,-1.1 5.79,-2.65 8.63,-3.96 2.39,-1.09 2.29,-1.41 -0.29,-0.95 -14.83,2.67 -29.63,1.23 -44.39,-4.3 -10.65,-3.99 -20.66,-9.46 -31.14,-12.53 -15.93,-4.66 -33.09,-2.59 -49.48,2.91 -3.77,1.26 -4.2,0.53 -1.3,-2.19"
       id="path14"
       style="stroke:none" />
    <path
       stroke="#7e7f7f"
       vector-effect="non-scaling-stroke"
       d="m 279.62,473.4 c -0.09,-1.19 -0.38,-1.25 -0.89,-0.16 -17.99,38.88 10.77,82.2 53.6,80.95 15.45,-0.45 30.51,-7.6 41.04,-19.77 0.91,-1.05 0.72,-1.3 -0.56,-0.76 -12.1,5.16 -27.84,5.94 -40.34,3.38 -15.99,-3.27 -28.7,-11.26 -38.14,-23.97 -8.71,-11.73 -13.61,-24.95 -14.71,-39.67"
       id="path16"
       style="stroke:none" />
  </g>
  <path
     fill="#000000"
     d="m 205.63896,704.00157 c -12.6,-6.41 -24.11,-12.96 -34.54,-19.67 -44.39,-28.52 -81.189996,-65.1 -110.409996,-109.75 -22.46,-34.31 -38.87,-73.03 -48.87,-112.57 -4.7200005,-18.62 -7.9900005,-38.84 -9.8200005,-60.65 -0.57,-6.81 -0.89,-13.64 -0.97,-20.47 -0.97999996,-82.95 22.8900005,-157.81 71.6100005,-224.56 C 116.36896,96.421571 173.28896,52.991571 243.38896,26.061571 c 29.81,-11.45 61.5,-19.06 95.07,-22.82 30.97,-3.47000005 62.34,-2.91000005 94.09,1.67 54.45,7.85 104.86,26.94 151.23,57.29 34.87,22.82 65.59,52.479999 91.34,85.839999 12.25,15.87 22.43,31.19 30.52,45.96 29.61,54.03 44.9,112.09 45.87,174.18 0.26,16.47 -0.58,32.84 -2.53,49.09 -7.29,60.93 -27.96,116.27 -62.01,166.01 -12.05,17.61 -25.52,34.03 -40.41,49.28 -22.05,22.57 -45.54,41.55 -70.49,56.95 -51.83,32.01 -108.08,50.38 -168.75,55.13 -26.25,2.05 -51.87,1.41 -76.88,-1.92 -43.99,-5.86 -85.59,-18.77 -124.8,-38.72 z m 209.35,-373.34 c -0.4,-0.48 -0.29,-0.71 0.33,-0.69 8.96,0.23 17.34,1.4 25.13,3.53 6.28,1.72 12.14,4.6 17.2,8.73 0.84,0.69 1.7,0.71 2.57,0.06 10.38,-7.72 11.59,-21.68 -2.78,-25.71 -4.4,-1.23 -8.97,-1.88 -13.72,-1.93 -13.2,-0.15 -24.44,0.31 -33.72,1.37 -8.93,1.03 -16.28,4.46 -24.01,8.86 -25.07,14.26 -46.61,32.38 -64.62,54.37 -36.12,44.06 -45.78,102.56 -37.07,157.75 5.74,36.42 17.73,71.97 36.68,103.01 0.1,0.17 0.05,0.4 -0.11,0.51 -13.25,9.24 -28.21,13.93 -44.88,14.08 -16.86,0.14 -33.33,-4.06 -48.84,-10.83 -38.86,-16.98 -71.82,-45.4 -98.07,-79.37 -23.27,-30.11 -41.459996,-63.92 -54.589996,-101.44 -2.31,-6.61 -4.26,-13.08 -5.86,-19.4 -6.27,-24.77 -9.84,-48.23 -10.7,-70.38 -1.96,-50.25 5.74,-99.25 23.11,-146.98 0.46,-1.27 0.33,-1.33 -0.38,-0.18 -0.54,0.87 -1.04,1.77 -1.49,2.7 -4.31,8.83 -8.51,18.22 -12.59,28.19 -19.89,48.53 -26.74,99.72 -20.55,153.55 5.33,46.36 20.31,89.65 43.7,129.59 16.419996,28.05 37.619996,53.85 63.599996,77.41 4.83,4.39 9.83,8.56 14.98,12.49 55.17,42.16 121,67.84 190.05,72.26 36.14,2.31 72.34,-1.39 108.59,-11.09 6.43,-1.72 12.8,-3.68 19.11,-5.88 51.44,-17.9 95.78,-46.46 133.02,-85.69 40.61,-42.76 67.6,-92.71 80.99,-149.85 20.98,-89.58 3.97,-185.18 -48.06,-260.37 -19.15,-27.67 -42.26,-52.48 -69.35,-74.43 -28.89,-23.409999 -60.99,-40.939999 -96.3,-52.569999 -6.56,-2.16 -15.08,-4.72 -25.57,-7.68 -1.13,-0.32 -3.77,-0.89 -7.92,-1.7 -0.03,-0.01 -0.05,0 -0.06,0.03 -0.01,0.01 -0.01,0.03 -0.01,0.05 -0.02,0.06 -0.01,0.1 0.04,0.11 13.6,4.73 26.3,9.97 38.09,15.74 25.88,12.67 48.72,28.01 68.51,46.039999 22.54,20.52 41.18,43.52 55.92,68.99 11.43,19.75 20.16,41.11 26.2,64.06 5.11,19.45 8.32,39.49 8.8,59.39 1.26,52.4 -11.99,105.05 -40.01,149.28 -17.28,27.28 -38.49,50.3 -63.62,69.06 -25.41,18.97 -53.6,32.08 -84.56,39.33 -31.31,7.34 -63.49,7.27 -93.8,-4.07 -0.31,-0.11 -0.51,-0.33 -0.59,-0.65 -1.74,-6.79 -3.21,-13.98 -4.4,-21.55 -0.75,-4.8 -2,-9.35 -5.54,-12.87 -3.89,-3.86 -7.41,-7.53 -10.57,-11.01 -13.32,-14.68 -19.99,-33.38 -16.75,-53.13 0.08,-0.51 0.7,-0.71 1.07,-0.35 2.9,2.87 5.75,5.56 8.55,8.07 17.67,15.84 37.92,27.51 60.76,35.01 7.3,2.41 14.67,3.23 22.11,2.48 12.69,-1.27 20.25,-11.61 17.34,-24.07 -0.71,-3.05 -2.17,-5.93 -3.48,-8.83 -1.66,-3.67 -0.74,-6.16 2.77,-7.49 2.07,-0.79 4.6,-0.78 7.61,0.01 6.52,1.71 7.44,-5.53 5.62,-9.69 -2.78,-6.35 -12.62,-7.04 -18.45,-7.45 -3.09,-0.22 -3.21,-0.95 -0.38,-2.2 0.85,-0.37 1.65,-0.85 2.41,-1.44 3.7,-2.84 9.35,-4.11 14.13,-4.44 5.15,-0.34 9.39,1.81 13.21,5.05 0.41,0.35 1.04,0.26 1.33,-0.2 3.24,-5.02 0.21,-13.66 -3.03,-18.12 -1.69,-2.32 -3.31,-4.74 -4.86,-7.27 -0.59,-0.97 0.03,-2.22 1.16,-2.33 7.27,-0.67 14.21,0.69 20.81,4.07 3.42,1.75 6.79,3.44 10.11,5.05 6.18,3 12.68,0 12.91,-7.32 0.23,-7.83 0.57,-17.34 1.01,-28.52 0.86,-21.97 4.4,-43.44 10.61,-64.41 4.04,-13.64 8.21,-28.47 10.55,-41.23 2.21,-12 3.66,-24.13 4.35,-36.4 0.03,-0.61 -0.17,-0.71 -0.62,-0.29 -8.3,7.73 -16.85,15.04 -26.51,20.94 -9.98,6.09 -19.93,11.01 -29.86,14.75 -20.19,7.61 -39.24,15.41 -57.17,23.38 -0.14,0.07 -0.24,0.18 -0.31,0.33 -0.14,0.36 -0.02,0.5 0.35,0.41 16.54,-3.83 32.49,-5.5 47.85,-5.02 7.06,0.22 13.55,1.54 19.46,3.96 12.57,5.13 18.71,20.77 10.16,32.19 -1.95,2.6 -3.7,4.53 -5.25,5.8 -6.33,5.19 -14.18,11.25 -23.53,18.19 -1.95,1.44 -3.53,3.1 -6.25,1.77 -7.25,-3.55 -12.74,-8.14 -16.49,-13.77 -2.07,-3.11 -4.13,-6.15 -6.19,-9.14 -4.07,-5.89 -11.46,-9.71 -18.4,-11.91 -0.4,-0.13 -0.73,-0.35 -0.99,-0.66 z m 6.45,-226.54 c -25.94,-10.099999 -52.13,-14.689999 -78.57,-13.769999 -38.29,1.32 -74.76,13.649999 -101.28,41.349999 -15.14,15.81 -24.6,35.97 -24.02,57.94 0.03,1.07 0.43,1.23 1.2,0.48 4.97,-4.85 9.94,-9.41 14.91,-13.68 16.45,-14.11 35.82,-21.68 58.11,-22.73 13.61,-0.63 27.05,1.25 40.3,5.64 8.59,2.85 17.21,5.88 25.85,9.11 26.14,9.75 54.59,10.44 81.17,-0.18 11.14,-4.45 22.84,-9.32 34.14,-11.91 8.17,-1.87 16.26,-2.79 24.27,-2.78 1.17,0 1.33,-0.4 0.46,-1.19 -22.48,-20.72 -48.42,-37.33 -76.54,-48.28 z m -24.62,109.03 c 22.11,10.63 44.89,13.78 68.34,9.45 25.36,-4.69 48.49,-18.25 65.74,-37.41 0.93,-1.04 1.76,-2.11 2.49,-3.22 0.38,-0.59 0.31,-1.12 -0.2,-1.59 -16.5,-14.97 -42.94,-10.86 -62.04,-1.96 -8.33,3.89 -16.12,8.41 -24.47,11.66 -15.41,5.99 -31.16,8.57 -47.25,7.73 -5.94,-0.31 -12.45,-1.23 -19.54,-2.75 -7.78,-1.67 -14.06,-3.35 -18.84,-5.04 -10.31,-3.67 -20.43,-7.24 -30.38,-10.71 -16.91,-5.91 -33.78,-7.63 -50.87,-3.86 -14.87,3.29 -27.02,10.71 -38.05,21.11 -7.94,7.48 -16.13,15.35 -25.72,20.29 -10.37,5.33 -23.06,7.21 -33.7,12.37 -22.05,10.69 -32.54,32.19 -33.26,56.23 -0.46,15.4 1.47,30.14 5.8,44.21 2.81,9.17 6.53,16.83 11.15,23 9.89,13.21 22.83,20.29 38.82,21.25 9.22,0.56 19.33,-1.62 26.96,-6.08 7.3,-4.27 12.88,-7.31 16.75,-9.12 10.44,-4.89 22.23,-6.44 35.36,-4.66 12.3,1.67 24.12,3.42 36.29,0.21 1.66,-0.44 1.63,-0.71 -0.08,-0.8 -13.91,-0.76 -27.03,-5.16 -39.92,-10.2 -9.31,-3.63 -18.53,-5.06 -27.65,-4.28 -8.92,0.76 -17.86,3.72 -26.83,6 -15.26,3.87 -32.02,1.38 -43.32,-9.62 -11.12,-10.83 -15.93,-24.4 -14.44,-40.7 1.84,-20.18 15.99,-35.6 35.28,-41.61 4.34,-1.35 8.76,-2.52 13.27,-3.49 12.93,-2.81 24.42,-8.66 34.45,-17.57 8.17,-7.24 15.93,-14.95 25.08,-21.6 16.02,-11.64 36.99,-17.15 56.58,-16.66 14.23,0.35 28.5,3.6 42.82,9.75 7.99,3.43 15.11,6.66 21.38,9.67 z m -108.63,41.55 c -0.16,-0.47 -0.08,-0.91 0.24,-1.32 2.71,-3.48 6.58,-6.79 10.31,-9.13 25.07,-15.8 54.92,-15.99 82.39,-5.29 11.28,4.39 21.19,7.49 29.73,9.28 12.57,2.64 25.88,3.17 39.92,1.6 21.8,-2.43 41.44,-9.81 58.91,-22.14 12.2,-8.61 22.76,-21.72 26.89,-35.98 0.49,-1.71 0.24,-1.82 -0.75,-0.35 -2.74,4.05 -6.31,7.34 -9.85,10.73 -13.88,13.28 -29.38,22.63 -46.49,28.06 -24.56,7.79 -49.21,7.42 -73.96,-1.11 -9.43,-3.25 -18.92,-6.56 -28.47,-9.94 -10.51,-3.71 -21.48,-5.87 -32.91,-6.48 -19.45,-1.04 -36.66,4.24 -51.62,15.84 -12.08,9.35 -22.51,21.6 -35.54,30.61 -0.8,0.55 -0.72,0.78 0.25,0.68 5.81,-0.6 11.49,-0.2 17.38,0.04 11.75,0.46 23.54,2.18 35.39,5.16 12.44,3.13 25.06,8.1 37.23,11.37 20.93,5.62 42.04,6.33 63.31,2.14 7.84,-1.54 15.18,-4.13 22.02,-7.76 1.13,-0.59 1.06,-0.8 -0.2,-0.61 -19.69,2.93 -38.81,-0.05 -57.36,-8.95 -10.78,-5.16 -21.18,-10.45 -33.06,-12.46 -17.52,-2.97 -36.25,0.16 -52.88,6.42 -0.36,0.14 -0.75,-0.05 -0.88,-0.41 z m -151.86,-3.84 c 7.68,-19.49 21.35,-32.88 41,-40.17 6.63,-2.47 13.58,-4.86 20.84,-7.17 1.51,-0.49 1.52,-1 0.02,-1.53 -21.98,-7.77 -46.35,-2.73 -63.02,13.08 -23.08,21.88 -26.98,58.18 -4.2,81.95 0.68,0.71 0.96,0.58 0.84,-0.4 -1.85,-15.09 -1.01,-31.73 4.52,-45.76 z m 89.23,58.57 c 8.77,-8.24 22.27,-12 34.3,-12.71 11.48,-0.67 22.5,1.04 33.24,4.78 4.65,1.62 9.35,3.05 14.08,4.29 17.06,4.46 36.38,3.21 52.73,-4.95 0.9,-0.45 0.85,-0.7 -0.16,-0.73 -6.4,-0.23 -12.94,-1.32 -19.63,-3.27 -5.41,-1.58 -10.81,-3.25 -16.08,-5.31 -8.14,-3.19 -16.19,-5.92 -24.14,-8.18 -31.44,-8.92 -74.57,-6.06 -95.05,23.37 -4.27,6.13 -8.74,17.37 1.26,20.52 2.05,0.65 4.3,0.84 6.73,0.58 9.38,-0.99 17.69,-4.13 26.4,-6.66 11.77,-3.42 23.63,-3.22 35.58,0.6 8.52,2.72 16.2,7.64 24.65,10.25 14.77,4.57 29.46,4.05 44.06,-1.56 2.86,-1.1 5.79,-2.65 8.63,-3.96 2.39,-1.09 2.29,-1.41 -0.29,-0.95 -14.83,2.67 -29.63,1.23 -44.39,-4.3 -10.65,-3.99 -20.66,-9.46 -31.14,-12.53 -15.93,-4.66 -33.09,-2.59 -49.48,2.91 -3.77,1.26 -4.2,0.53 -1.3,-2.19 z m -85.39,30.34 c -0.09,-1.19 -0.38,-1.25 -0.89,-0.16 -17.99,38.88 10.77,82.2 53.6,80.95 15.45,-0.45 30.51,-7.6 41.04,-19.77 0.91,-1.05 0.72,-1.3 -0.56,-0.76 -12.1,5.16 -27.84,5.94 -40.34,3.38 -15.99,-3.27 -28.7,-11.26 -38.14,-23.97 -8.71,-11.73 -13.61,-24.95 -14.71,-39.67 z"
     id="path22"
     style="stroke:none" />
</svg>
