<?xml version="1.0" encoding="UTF-8" standalone="no"?>
<svg
   version="1.1"
   viewBox="0 0 693.71552 695.15533"
   id="svg234"
   sodipodi:docname="kobold 1 white.svg"
   width="693.71552"
   height="695.15533"
   inkscape:version="1.1.2 (0a00cf5339, 2022-02-04)"
   xmlns:inkscape="http://www.inkscape.org/namespaces/inkscape"
   xmlns:sodipodi="http://sodipodi.sourceforge.net/DTD/sodipodi-0.dtd"
   xmlns="http://www.w3.org/2000/svg"
   xmlns:svg="http://www.w3.org/2000/svg">
  <defs
     id="defs238" />
  <sodipodi:namedview
     id="namedview236"
     pagecolor="#ff0000"
     bordercolor="#666666"
     borderopacity="1.0"
     inkscape:pageshadow="2"
     inkscape:pageopacity="0"
     inkscape:pagecheckerboard="true"
     showgrid="false"
     inkscape:zoom="1.2656017"
     inkscape:cx="355.16703"
     inkscape:cy="329.09248"
     inkscape:window-width="2490"
     inkscape:window-height="1376"
     inkscape:window-x="70"
     inkscape:window-y="140"
     inkscape:window-maximized="1"
     inkscape:current-layer="svg234" />
  <g
     stroke-width="2"
     fill="none"
     stroke-linecap="butt"
     id="g116"
     style="stroke:none;stroke-opacity:1"
     transform="translate(-164.48548,-162.92533)">
    <path
       stroke="#828382"
       vector-effect="non-scaling-stroke"
       d="m 628.08,185.15 c -33.32,-12.4 -67.72,-19.81 -102.26,-20.98 -15.55,-0.52 -29.87,-0.21 -42.97,0.92 -27.73,2.41 -54.92,8.3 -81.55,17.67 -56.17,19.76 -104.24,51.22 -144.23,94.39 -28.27,30.52 -51.64,66.53 -66.98,105.13 -22.43,56.43 -29.52,114.68 -21.29,174.75 6.47,47.13 23.36,94.29 48.74,134.45 27.46,43.45 63.57,80.89 106.34,108.21 31.29,19.99 64.12,35.01 98.49,45.06 6.59,1.93 13.27,3.6 20.06,5.02 52.5,11 104.16,9.59 154.99,-4.24 49.53,-13.47 94.14,-36.61 133.82,-69.42 28.56,-23.61 52.83,-51.11 72.81,-82.5 30.82,-48.42 48.79,-104.76 52.41,-161.61 1.93,-30.27 0.09,-59.51 -5.52,-87.71 C 839.79,388.22 814.69,334.8 777.32,290.87 767.1,278.85 756.8,267.98 746.42,258.26 712.09,226.11 672.64,201.74 628.08,185.15"
       id="path2"
       style="stroke:none;stroke-opacity:1" />
    <path
       stroke="#828382"
       vector-effect="non-scaling-stroke"
       d="m 550.17,754.18 c -8.06,-3.4 -14.68,-6.42 -19.87,-9.06 -12.08,-6.16 -22.71,-14.43 -33.16,-22.47 -5.46,-4.2 -10.16,-8.72 -14.11,-13.56 -0.05,-0.05 -0.1,-0.1 -0.16,-0.14 -0.09,-0.05 -0.18,-0.06 -0.29,-0.03 -0.07,0.02 -0.11,0.09 -0.09,0.16 4.86,16.78 12.14,33.87 23.1,47.34 16.3,20.05 34.02,38.75 53.16,56.1 1.14,1.03 2.32,2 3.54,2.93 0.25,0.19 0.53,0.26 0.84,0.19 l 13.41,-2.95 c 0.56,-0.12 0.81,-0.77 0.48,-1.23 -2.51,-3.53 -5.18,-7.15 -8.01,-10.86 -1.05,-1.38 -1.77,-2.78 -2.15,-4.2 -0.25,-0.95 -0.02,-1.08 0.67,-0.4 4.05,3.93 8.22,8.25 12.5,12.96 1.18,1.3 2.64,1.8 4.38,1.51 3.11,-0.53 6.01,-1.42 8.68,-2.69 0.33,-0.15 0.41,-0.39 0.24,-0.72 -1.68,-3.3 -3.36,-6.56 -4.55,-10.07 -1.42,-4.17 -2.84,-8.05 -4.25,-11.65 -0.71,-1.81 -0.46,-1.96 0.75,-0.44 4.63,5.83 9.03,12.18 13.21,19.05 1.22,2.01 2.75,2.42 4.6,1.25 0.5,-0.31 0.7,-0.93 0.5,-1.48 -5.65,-15.23 -12.36,-29.45 -23.1,-41.48 -6.85,-7.67 -14.76,-14.68 -21.95,-22.29 -3.78,-4.01 -8.51,-8.25 -11.12,-12.93 -0.31,-0.55 -0.18,-0.68 0.37,-0.37 0.97,0.53 1.9,1.11 2.79,1.73 6.64,4.65 14.73,7.84 22.03,11.27 1.33,0.63 1.49,0.4 0.49,-0.68 -4.64,-4.96 -9.34,-10.12 -14.11,-15.47 -0.96,-1.08 -1.84,-2.2 -2.65,-3.37 -0.79,-1.15 -0.63,-1.29 0.47,-0.44 6.09,4.7 12.75,9.17 20,13.41 6.22,3.64 12.56,5.93 18.76,8.96 0.47,0.23 0.64,0.09 0.53,-0.42 -0.07,-0.32 -0.26,-0.62 -0.55,-0.9 -5.11,-4.8 -10.44,-9.18 -15.98,-13.13 -1.3,-0.93 -2.24,-2 -2.81,-3.21 -0.65,-1.36 -0.36,-1.59 0.85,-0.7 2.29,1.68 4.71,3.28 7.25,4.8 1.76,1.05 2.08,0.72 0.97,-1 -4.94,-7.63 -9.21,-16.16 -12.81,-25.59 -0.07,-0.17 0.05,-0.36 0.23,-0.39 0.25,-0.04 0.44,0.04 0.58,0.23 3.59,4.98 7.77,9.43 12.52,13.34 5.67,4.66 11.11,9.55 16.88,14.4 9.42,7.91 19.16,14.68 29.22,20.32 0.83,0.47 0.78,0.74 -0.17,0.83 -7.81,0.68 -15.3,0.81 -22.48,0.39 -0.43,-0.02 -0.55,0.16 -0.35,0.54 7.94,14.97 11.3,30.87 8.98,47.83 -0.04,0.27 0.23,0.48 0.48,0.38 20.92,-8.19 40.42,-18.28 58.5,-30.27 5.53,-3.67 11.09,-7.56 16.66,-11.65 66.7,-48.99 113.4,-126.05 122.9,-208.98 1.97,-17.24 2.69,-33.93 2.14,-50.06 C 817.26,444.27 801.27,391.38 771.6,345.64 744.63,304.05 709.65,270.3 666.66,244.4 632.25,223.66 595.08,210.16 555.15,203.89 c -35.85,-5.63 -72.13,-4.34 -108.84,3.87 -20,4.47 -38.62,10.61 -55.86,18.41 -22.27,10.07 -43.59,22.65 -63.98,37.73 -31.89,23.59 -58.05,54.11 -79.08,87.92 -0.29,0.46 -0.87,0.65 -1.37,0.44 -2.74,-1.13 -5.51,-2.6 -8.49,-2.82 -6.78,-0.48 -11.5,4.46 -12.28,10.95 -1.15,9.63 -0.39,17.82 2.29,24.57 1.03,2.58 -0.34,4.28 -1.24,6.51 -22.11,54.87 -28.28,111.74 -18.53,170.63 8.49,51.28 29,97.44 61.53,138.49 18.93,23.9 41.8,45.62 67.35,62.49 0.57,0.37 1.29,0.43 1.91,0.15 6.58,-3.03 12.83,-6.78 18.75,-11.25 0.39,-0.29 0.34,-0.42 -0.15,-0.39 -5.44,0.38 -11.14,0.28 -17.11,-0.29 -2.08,-0.21 -2.18,-0.76 -0.29,-1.65 5.33,-2.53 10.75,-5.57 16.24,-9.13 4.62,-2.99 9.77,-5.67 14.53,-8.45 1.51,-0.89 1.41,-1.15 -0.31,-0.79 -8.52,1.79 -17.76,2.68 -27.73,2.66 -2.64,0 -2.82,-0.67 -0.55,-2.01 L 375,712.45 c 0.31,-0.19 0.29,-0.32 -0.06,-0.4 -3.86,-0.88 -7.62,-2.29 -11.28,-4.24 -1.03,-0.55 -0.96,-0.85 0.21,-0.9 9.41,-0.38 18.96,-3.34 28.65,-8.89 1.73,-0.99 3.31,-2.1 4.74,-3.33 0.59,-0.51 0.49,-0.78 -0.28,-0.82 -18.38,-0.89 -37.76,-1.79 -56.43,-4.12 -1.39,-0.17 -1.45,-0.56 -0.19,-1.16 10.89,-5.24 21.7,-10.24 32.43,-15 17.95,-7.95 36.17,-18.01 50.45,-32.19 0.46,-0.45 0.37,-0.67 -0.28,-0.65 -11.67,0.29 -22.73,-1.49 -33.18,-5.36 -1.71,-0.63 -1.66,-1.09 0.13,-1.38 9.06,-1.49 17.98,-3.56 26.76,-6.22 11.02,-3.35 21.61,-8.64 31.76,-15.88 1.15,-0.83 1.05,-1.05 -0.32,-0.67 -7.6,2.12 -14.94,3.86 -22.69,4.74 -5.3,0.6 -10.59,1.27 -15.88,2.02 -0.23,0.03 -0.43,-0.13 -0.44,-0.36 -0.02,-0.22 0.13,-0.52 0.3,-0.65 1.58,-1.11 3.12,-2.41 4.63,-3.88 6.51,-6.37 12.83,-12.92 18.94,-19.65 0.42,-0.46 0.32,-0.64 -0.29,-0.54 -12.66,2.01 -25.44,1.85 -38.35,-0.48 -0.14,-0.02 -0.26,-0.14 -0.28,-0.28 -0.03,-0.15 0.03,-0.24 0.18,-0.27 9.22,-1.53 17.28,-5.64 24.19,-12.31 0.09,-0.08 0.06,-0.23 -0.06,-0.27 -22.38,-6.86 -43.99,-17.06 -64.84,-30.61 -28.9,-18.77 -53.93,-41.86 -75.1,-69.27 -18.49,-23.94 -33.97,-50.46 -40.11,-79.14 -2.05,-9.55 -3.04,-19.47 -2.98,-29.77 0.02,-2.65 0.49,-5.9 2.87,-7.48 0.31,-0.2 0.64,-0.27 1,-0.21 1.72,0.31 3.06,0.79 4.01,1.46 3.62,2.55 7.45,5.22 11.49,8 16.03,11.05 33.28,19.63 51.77,25.74 14.1,4.65 30.03,7.73 45.33,7.34 0.24,-0.01 0.36,-0.28 0.22,-0.47 -4.33,-5.72 -8.27,-11.68 -11.83,-17.89 -14.84,-25.88 -25.27,-53.33 -29.8,-82.87 -0.64,-4.18 -1.23,-9.1 -0.43,-13.2 0.96,-4.87 7.25,-5.98 10.66,-2.8 24.33,22.61 52.14,39.75 83.45,51.44 21.19,7.91 43.33,13.7 66.42,17.39 0.59,0.09 0.67,-0.07 0.25,-0.49 l -10.49,-10.53 c -0.47,-0.47 -0.38,-0.66 0.28,-0.55 1.05,0.17 2.07,0.41 3.06,0.74 11.45,3.8 22.98,8.34 34.79,11.7 10.53,3 21.17,6.05 31.92,9.14 0.65,0.19 0.81,-0.02 0.5,-0.61 -0.56,-1.05 -1.22,-2.15 -1.99,-3.31 -5.91,-8.95 -12.82,-17.42 -20.73,-25.39 -1.02,-1.03 -0.85,-1.31 0.52,-0.82 9.68,3.46 19.45,7.59 29.3,12.38 21.75,10.59 43.77,22.59 63.16,37.01 0.15,0.12 0.37,0.03 0.41,-0.16 1.24,-6.42 3.62,-12.3 4.93,-18.84 0.06,-0.29 0.41,-0.4 0.62,-0.2 0.12,0.11 0.21,0.24 0.28,0.39 4.09,9.89 6.63,19.47 7.62,28.72 0.09,0.85 0.4,0.94 0.91,0.25 3.52,-4.72 4.85,-10.43 5.64,-16.24 0.05,-0.4 0.5,-0.6 0.83,-0.39 0.19,0.13 0.39,0.41 0.6,0.84 4.66,9.54 5.61,19.03 6.15,29.54 0.04,0.73 0.23,1.42 0.58,2.06 0.75,1.37 1.16,1.27 1.22,-0.29 0.1,-2.76 -0.02,-5.61 -0.35,-8.56 -0.06,-0.52 0.49,-0.9 0.95,-0.66 5.62,2.85 8.38,7.6 11.8,12.54 0.96,1.39 2.32,2.88 3.72,3.79 12.17,7.94 24.46,16.19 36.88,24.76 1.09,0.76 1.94,1.81 2.46,3.03 3.62,8.66 6.33,16.31 13.94,21.94 11.09,8.21 22.17,15.72 33.26,22.53 0.85,0.52 1.42,1.28 1.72,2.27 2.21,7.23 4.5,14.18 6.89,20.84 1.15,3.21 -0.11,6.17 -0.29,9.43 -0.69,12.35 -1.61,25.63 -2.76,39.83 -0.05,0.67 -0.33,1.3 -0.78,1.79 -4.4,4.75 -8.4,9.93 -12.01,15.55 -8.16,12.73 -16.09,25.29 -23.8,37.68 -1.89,3.05 -3.96,5.91 -6.2,8.6 -0.67,0.81 -1.61,1.36 -2.64,1.53 -9.71,1.66 -20.1,1.41 -30.09,1.33 -6.68,-0.05 -12.3,0.37 -16.86,1.26 -15.08,2.93 -32.35,9.91 -42.97,21.13 -5.59,5.9 -6.58,12.57 -2.98,20.01 2.99,6.17 6.56,11.6 10.71,16.29 0.78,0.88 0.61,1.15 -0.52,0.82 -4.58,-1.38 -9.26,-3.95 -13.38,-6.46 -0.44,-0.27 -0.53,-0.18 -0.28,0.27 4.49,7.88 7.94,13.54 10.34,16.97 3.87,5.54 8.26,11.05 13.17,16.52 0.58,0.65 0.44,0.92 -0.43,0.81 -11.54,-1.41 -21.7,-6.05 -30.48,-13.93 -14.04,-12.61 -26.1,-26.52 -37.88,-41.3 -1.29,-1.61 -2.02,-1.39 -2.21,0.66 -0.13,1.48 0.08,3.43 0.63,5.85 2.15,9.56 5.74,18.5 10.77,26.81 1.62,2.67 3.69,4.97 5.29,7.67 0.05,0.1 0.04,0.18 -0.04,0.25 -0.03,0.03 -0.06,0.04 -0.09,0.05 -0.13,0.03 -0.26,0 -0.37,-0.11 -17.85,-17.03 -33.7,-35.33 -46.34,-56.33 -1.55,-2.57 -2.57,-5.33 -4.16,-7.94 -0.44,-0.72 -0.58,-0.67 -0.41,0.16 2.61,13.1 6.5,25.81 11.67,38.14 3.47,8.26 7.78,16.05 13,23.31 0.66,0.93 0.55,1.03 -0.32,0.3 -13.14,-10.83 -24.25,-23.18 -33.32,-37.03 -5.99,-9.16 -10.31,-17.91 -12.95,-26.25 -0.92,-2.91 -1.79,-5.91 -2.61,-8.98 -0.44,-1.64 -0.63,-1.61 -0.56,0.09 0.75,20.35 5.37,40.07 13.86,59.16 0.58,1.31 0.33,1.5 -0.76,0.56 -11.65,-10.07 -20.94,-21.65 -27.89,-34.74 -0.83,-1.57 -1.17,-1.47 -1.02,0.3 2.09,24.61 10.56,45.84 25.43,63.68 3.03,3.64 5.81,6.36 8.34,8.16 2.69,1.92 5.44,4.04 8.24,6.36 0.09,0.07 0.17,0.07 0.25,-0.02 l 0.01,-0.01 c 0.11,-0.11 0.11,-0.23 0,-0.34 -3.85,-3.98 -7.15,-7.55 -9.88,-10.72 -8.45,-9.81 -15.05,-20.89 -19.78,-33.24 -1.21,-3.14 -2.06,-6.14 -2.57,-8.99 -0.03,-0.2 0.05,-0.31 0.25,-0.33 l 0.33,-0.02 c 0.34,-0.03 0.66,0.19 0.77,0.52 0.69,2.26 1.6,4.4 2.73,6.41 4.39,7.84 8.66,15.33 14.16,22.66 7.89,10.51 16.01,19.64 24.36,27.41 6.1,5.67 13.92,11.68 23.45,18.03 0.53,0.35 0.51,0.41 -0.08,0.16"
       id="path4"
       style="stroke:none;stroke-opacity:1" />
    <path
       stroke="#828382"
       vector-effect="non-scaling-stroke"
       d="m 384.51,351.8 c -6.28,-2.81 -12.3,-6.94 -18.21,-10.5 -3.24,-1.95 -6.06,-4.39 -9.1,-6.6 -2.2,-1.6 -4.39,-3.35 -6.57,-5.25 -8.13,-7.08 -17.2,-14.61 -27.21,-22.58 -0.43,-0.34 -0.54,-0.26 -0.35,0.25 0.93,2.43 2.05,4.81 3.34,7.15 5.11,9.21 11.41,17.44 18.9,24.67 5.99,5.79 11.89,11.34 17.69,16.66 1.3,1.19 2.41,2.47 3.33,3.82 0.26,0.39 0.03,0.92 -0.43,0.98 -0.23,0.03 -0.45,-0.03 -0.66,-0.18 -2.35,-1.73 -4.85,-3.59 -7.5,-5.58 -3.91,-2.93 -8.93,-7.59 -15.05,-13.97 -0.1,-0.11 -0.21,-0.12 -0.34,-0.03 l -0.21,0.17 c -0.03,0.02 -0.04,0.05 -0.02,0.09 2.02,3.29 4.32,6.44 6.91,9.45 6.15,7.16 13.74,13.78 21.16,19.48 12.65,9.73 26.07,16.55 40.26,20.45 2.68,0.74 5.52,1.33 8.51,1.77 0.06,0.01 0.1,-0.01 0.12,-0.08 l 0.08,-0.33 c 0.05,-0.19 -0.02,-0.32 -0.21,-0.39 -7.93,-2.78 -15.33,-6.21 -22.22,-10.29 -6.31,-3.74 -12.54,-7 -17.67,-12.49 -1.29,-1.38 -1.06,-1.72 0.69,-1.01 1.02,0.41 2.01,0.95 2.96,1.62 10.67,7.48 21.82,13.1 33.46,16.85 5.03,1.63 10.24,2.5 15.45,3.56 0.73,0.15 1.44,0.13 2.13,-0.06 0.35,-0.09 0.35,-0.19 0,-0.29 -11.59,-3.25 -22.74,-7.71 -33.43,-13.39 -4.69,-2.49 -8.87,-5.59 -13.22,-8.49 -3.17,-2.11 -6.22,-4.53 -9.15,-7.26 -4.08,-3.79 -8.23,-7.62 -12.46,-11.48 -0.57,-0.51 -0.77,-1.15 -0.61,-1.91 0.08,-0.39 0.28,-0.48 0.61,-0.27 14.2,9.03 28.57,16.87 44.59,21.56 0.45,0.13 0.9,0.17 1.36,0.12 0.7,-0.07 0.74,-0.28 0.13,-0.63 -2.67,-1.52 -5.37,-2.83 -7.73,-4.74 -5.57,-4.49 -11.25,-9.13 -17.06,-13.92 -4.1,-3.39 -8.63,-5.79 -13,-8.67 -5.43,-3.58 -11.18,-6.51 -16.37,-10.42 -0.93,-0.71 -1.89,-1.39 -2.88,-2.04 -2.16,-1.43 -2.34,-1.21 -0.54,0.66 1.61,1.67 3.49,3.28 5.62,4.83 5.49,3.99 12.04,8.51 19.65,13.56 2.18,1.45 4.02,3.05 5.52,4.78 0.45,0.53 0.36,0.65 -0.27,0.37"
       id="path6"
       style="stroke:none;stroke-opacity:1" />
    <path
       stroke="#828382"
       vector-effect="non-scaling-stroke"
       d="M 418.4088,359.5586 C 418.55,359.22 418.39,358.84 418.0501,358.6969 l -9.9296,-4.0927 C 407.78,354.47 407.4,354.63 407.2588,354.9629 l -0.008,0.0185 c -0.1412,0.3386 0.0188,0.7186 0.3587,0.8617 l 9.9296,4.0927 c 0.3405,0.1342 0.7205,-0.0258 0.8617,-0.3587 l 0.008,-0.0185"
       id="path8"
       style="stroke:none;stroke-opacity:1" />
    <path
       stroke="#828382"
       vector-effect="non-scaling-stroke"
       d="m 526.75,463.22 c 1.96,2.97 3.78,6.01 5.45,9.12 3.51,6.54 3.61,13.88 2.31,21.45 -0.09,0.54 0.1,0.67 0.56,0.38 3.99,-2.47 7.53,-4.86 10.64,-7.17 1.39,-1.02 2.87,-2.69 2.59,-4.57 -0.64,-4.4 -3.36,-9.16 -6.01,-12.49 -5.05,-6.34 -11.44,-12.32 -19.15,-17.94 -0.24,-0.17 -0.28,-0.38 -0.13,-0.63 l 0.13,-0.21 c 0.07,-0.12 0.23,-0.17 0.35,-0.1 7.35,3.91 13.66,9.07 18.93,15.5 0.07,0.08 0.15,0.09 0.24,0.04 v -0.01 c 0.09,-0.06 0.11,-0.14 0.06,-0.24 -1.73,-3.15 -2.69,-6.86 -4.84,-9.74 -1.69,-2.27 -1.47,-2.48 0.68,-0.65 1.37,1.17 2.73,2.66 4.1,4.47 1.13,1.49 1.96,3.17 2.5,5.03 0.59,2.06 1.31,4.02 2.16,5.88 0.35,0.79 0.52,0.75 0.5,-0.12 l -0.14,-5.95 c -0.01,-0.34 0.13,-0.42 0.42,-0.23 1.8,1.18 2.8,2.82 2.99,4.91 0.39,4.23 0.35,8.39 -0.12,12.5 -0.58,5.19 -4.59,7.46 -8.31,10.36 -0.51,0.39 -0.45,0.53 0.18,0.42 0.94,-0.17 1.77,-0.62 2.74,-0.72 2.74,-0.29 5.59,-0.58 8.55,-0.89 1.24,-0.13 1.4,0.22 0.47,1.05 -5.05,4.49 -10.33,8.27 -15.82,11.35 -8.14,4.56 -16.32,8.4 -24.53,11.52 -0.93,0.35 -0.91,0.48 0.08,0.38 1.97,-0.2 4.03,-0.54 6.17,-1.02 7.96,-1.78 15.85,-3.33 23.68,-4.66 0.87,-0.15 0.92,0.01 0.17,0.47 -0.96,0.59 -1.93,1.15 -2.91,1.68 -3.48,1.89 -7.04,4.38 -10.68,7.47 -0.85,0.72 -1.66,1.28 -2.44,1.68 -1.45,0.74 -1.38,0.97 0.23,0.69 3.11,-0.55 6.18,-1.07 9.19,-1.57 7.11,-1.19 14.29,-1.38 21.56,-0.58 1.18,0.13 2.09,0.49 2.72,1.1 0.57,0.54 0.21,1.51 -0.58,1.54 l -3.93,0.16 c -0.58,0.03 -0.62,0.19 -0.12,0.48 1.55,0.93 4.74,0.65 6.58,0.66 1.2,0.01 2.59,0.44 3.63,0.9 2.03,0.88 1.94,1.36 -0.27,1.44 -6.08,0.22 -10.47,1.02 -15.01,5.71 -2.88,2.97 -5.66,5.91 -8.34,8.81 -0.67,0.73 -0.56,0.87 0.32,0.43 2.03,-1.01 4.09,-1.91 6.2,-2.7 3.31,-1.25 7.01,-2.08 11.1,-2.48 0.08,-0.01 0.13,0.03 0.15,0.11 l 0.09,0.41 c 0.03,0.15 -0.03,0.25 -0.18,0.28 -1.55,0.34 -2.99,0.92 -4.32,1.73 -5.9,3.61 -11.19,8 -15.8,12.98 -3.11,3.36 -6.32,6.48 -9.16,10.07 -1.36,1.72 -2.93,3.21 -4.72,4.47 -0.09,0.06 -0.13,0.14 -0.13,0.25 -0.01,0.09 0.04,0.16 0.15,0.22 0.06,0.03 0.12,0.03 0.18,0 8.25,-4.33 16.64,-8.03 25.17,-11.12 3.27,-1.19 3.43,-0.86 0.48,0.99 -2.63,1.65 -5.24,3.62 -7.81,5.92 -9.39,8.39 -19.41,18.29 -30.06,29.71 -0.96,1.03 -2,2.06 -3.12,3.09 -0.33,0.31 -0.29,0.37 0.13,0.2 8.21,-3.45 16.25,-7.09 24.12,-10.92 4.92,-2.39 9.66,-5.66 14.33,-8.83 3.65,-2.47 4.05,-2.03 1.18,1.32 -11.83,13.81 -21.13,27.74 -29.82,42.75 -0.23,0.41 -0.12,0.56 0.34,0.47 13.32,-2.7 26.34,-7.11 39.05,-13.22 4.53,-2.17 9.65,-4.76 15.37,-7.76 4.91,-2.57 9.45,-5.56 13.89,-8.53 0.02,-0.02 0.05,-0.01 0.07,0.01 0.02,0.02 0.02,0.05 0,0.07 l -30.05,31.07 c -0.79,0.82 -0.7,0.92 0.26,0.31 0.59,-0.37 1.18,-0.69 1.77,-0.94 23.38,-9.97 47.45,-13.41 72.36,-7.41 0.17,0.04 0.29,-0.02 0.34,-0.19 l 0.08,-0.24 c 0.01,-0.04 0,-0.07 -0.03,-0.09 -4.55,-1.99 -8.93,-3.88 -13.13,-5.68 -2.41,-1.03 -5.2,-1.95 -8.37,-2.77 -0.55,-0.14 -1.09,-0.41 -1.62,-0.8 -0.92,-0.68 -0.81,-0.97 0.33,-0.86 13.15,1.23 26.39,3.36 38.31,8.78 6.77,3.08 13.68,5.93 20.71,8.56 0.89,0.33 1.84,0.43 2.78,0.3 4.57,-0.67 9.11,-1.45 13.61,-2.36 1.57,-0.32 2.78,-1.14 3.62,-2.47 7.67,-12.11 16.1,-24.72 25.29,-37.82 0.64,-0.91 0.41,-1.43 -0.7,-1.55 -2.53,-0.27 -5.4,-0.45 -8.59,-0.56 -1.16,-0.04 -2.03,0.44 -2.88,1.17 -0.42,0.36 -0.61,0.26 -0.58,-0.29 0.06,-0.87 0.3,-1.74 0.72,-2.63 0.23,-0.49 0.09,-0.81 -0.44,-0.94 -17.29,-4.46 -34.27,-7.74 -50.96,-9.84 -8.2,-1.03 -16.83,-1.36 -25.34,-1.78 -9.46,-0.47 -18.78,-3.66 -28.1,-0.94 -2.55,0.74 -5.1,1.58 -7.66,2.51 -0.11,0.04 -0.19,0.01 -0.24,-0.09 v -0.01 c -0.07,-0.14 -0.03,-0.25 0.1,-0.32 10.67,-6.32 21.67,-12.03 32.99,-17.13 3.21,-1.44 7.99,-3.04 14.32,-4.79 0.1,-0.03 0.19,0 0.27,0.07 0.03,0.03 0.05,0.06 0.06,0.1 0.05,0.2 -0.01,0.36 -0.18,0.48 -4.16,3.09 -7.2,6.98 -9.13,11.68 -0.27,0.66 0.05,1.42 0.72,1.68 0.54,0.21 1.06,0.36 1.55,0.45 7.11,1.27 14.5,2.48 22.16,3.64 13.02,1.97 25.73,4.51 38.73,6.64 9.64,1.57 18.98,1.07 28.01,-1.52 2.65,-0.75 7.83,-3.13 8.18,-6.43 0.85,-8.15 1.47,-16.37 1.86,-24.67 0.02,-0.44 -0.5,-0.68 -0.82,-0.38 -0.25,0.23 -0.56,0.23 -0.95,0.01 -0.26,-0.15 -0.39,-0.45 -0.34,-0.74 0.8,-4.33 1.83,-8.38 3.1,-12.15 0.29,-0.86 0.29,-1.79 0.02,-2.65 -1.83,-5.77 -3.55,-11.49 -5.18,-17.18 -0.84,-2.94 -2.02,-4.79 -5.14,-5.72 -2.31,-0.69 -4.35,-1.55 -6.1,-2.58 -7.63,-4.46 -16.35,-10.45 -26.14,-17.96 -2.27,-1.74 -4.07,-3.69 -5.41,-5.85 -2.79,-4.49 -5.41,-9.18 -7.86,-14.06 -1.79,-3.56 -3.6,-5.93 -6.93,-8.14 -11.23,-7.43 -22.88,-14.72 -34.95,-21.85 -8.66,-5.13 -16,-11.24 -23.78,-17.22 -1.2,-0.91 -1.31,-0.79 -0.34,0.36 l 3.89,4.63 c 0.75,0.89 0.58,1.12 -0.51,0.71 -0.43,-0.16 -1.01,-0.48 -1.74,-0.96 -4.88,-3.19 -11.05,-7.61 -18.5,-13.24 -8.45,-6.38 -13.84,-10.34 -16.18,-11.89 -10.73,-7.08 -21.09,-13.13 -31.08,-18.14 -1.57,-0.79 -3.16,-1.69 -4.76,-2.72 -1.25,-0.79 -1.44,-0.59 -0.57,0.61 6.11,8.46 12.22,16.77 19.21,23.59 2.49,2.43 4.37,4.1 5.64,5.02 5.37,3.89 8.66,6.41 9.89,7.58 5.13,4.87 10.1,9.59 14.91,14.14 1.07,1.02 0.94,1.22 -0.4,0.59 -7.14,-3.33 -13.23,-6.18 -22.08,-9.38 -8.55,-3.09 -18.53,-5.8 -27.65,-8.84 -1.19,-0.39 -1.23,-0.3 -0.12,0.27 6.13,3.19 12.09,6.63 17.86,10.31 2.99,1.91 7.6,5.58 13.83,11.01 0.11,0.1 0.13,0.21 0.04,0.33 l -0.15,0.2 c -0.03,0.03 -0.06,0.04 -0.09,0.02 -6.11,-3.94 -11.82,-7.15 -17.14,-9.62 -8.89,-4.13 -17.42,-7.84 -25.58,-11.14 -7.28,-2.94 -17.56,-5.78 -30.83,-8.53 -8.09,-1.67 -16.92,-3.24 -26.49,-4.69 -0.33,-0.05 -0.36,0.02 -0.08,0.2 9.78,6.43 20.14,12.61 31.07,18.53 19.2,10.39 40.36,16.37 57.55,30.04 1.72,1.37 1.58,1.59 -0.41,0.66 -3.89,-1.81 -7.69,-3.43 -11.79,-4.74 -17.37,-5.54 -35.48,-9.44 -54.35,-11.7 -0.01,0 -0.01,0 -0.01,0.01 -0.04,0.09 -0.04,0.09 0.01,-0.02 0.01,-0.01 0.02,-0.02 0.04,-0.02 7.34,2.43 14.23,5.22 20.67,8.36 12.34,6.02 23.34,14.75 33.01,26.19 1.35,1.59 2.52,3.29 3.49,5.1 0.69,1.27 0.57,1.35 -0.34,0.22 -5.9,-7.27 -13.85,-12.8 -22.69,-18.8 -9.53,-6.47 -20.36,-11.52 -32.5,-15.13 -9.15,-2.72 -15.99,-4.51 -20.52,-5.37 -6.3,-1.19 -13.24,-1.99 -20.82,-2.4 -1.05,-0.05 -1.09,0.12 -0.12,0.52 5.41,2.21 9.77,5.62 14.74,8.68 1.57,0.97 3.32,1.5 5.23,1.6 5.52,0.28 17.84,0.69 21.19,6.14 0.57,0.93 0.33,1.26 -0.73,0.99 l -21.46,-5.59 c -1.34,-0.35 -1.6,0.03 -0.79,1.15 4.11,5.64 9.29,8.56 16.04,10.99 5.75,2.07 12.05,5.28 18.9,9.61 0.07,0.04 0.08,0.1 0.04,0.17 v 0.01 c -0.04,0.07 -0.09,0.08 -0.16,0.05 -6.7,-3.21 -13.52,-6.11 -20.47,-8.69 -3.5,-1.3 -7.18,-3.52 -9.67,-6.18 -4.32,-4.59 -9.82,-9.01 -16.49,-13.24 -5.9,-3.75 -11.63,-6.04 -17.19,-6.88 -2.98,-0.45 -8.06,-0.75 -15.24,-0.9 -5.04,-0.11 -10.05,-0.15 -15.04,-0.12 -0.6,0 -1.19,0.08 -1.78,0.23 -0.25,0.06 -0.33,0.38 -0.13,0.55 7.46,6.12 11.03,13.63 14.29,22.46 0.63,1.71 1.8,2.75 3.53,3.12 10.63,2.31 21.09,4.86 31.39,7.64 2.65,0.71 5.36,1.56 8.14,2.53 6.61,2.3 13.47,4.41 19.77,7.15 14.13,6.13 27.24,13.89 39.31,23.3 0.69,0.53 1.06,0.36 1.11,-0.51 0.39,-6.8 -0.63,-13.29 -3.08,-19.46 -0.27,-0.69 -0.21,-0.72 0.2,-0.1"
       id="path10"
       style="stroke:none;stroke-opacity:1" />
    <path
       stroke="#828382"
       vector-effect="non-scaling-stroke"
       d="m 325.85,463.57 c -1.77,1.37 -3.83,2.38 -6.19,3.05 -1.08,0.31 -1.84,1.01 -2.76,1.57 -0.62,0.37 -0.68,0.3 -0.18,-0.22 0.49,-0.51 1,-1 1.54,-1.46 0.64,-0.54 0.72,-1.48 0.18,-2.12 -4.8,-5.7 -11.06,-9.88 -16.75,-14.66 -3.44,-2.88 -5.84,-6.15 -8.55,-9.58 -0.8,-1.01 -0.92,-0.94 -0.36,0.23 1.67,3.5 3.31,7.14 4.9,10.93 0.95,2.27 2.02,4.3 3.19,6.11 2.75,4.24 5.59,8.53 8.5,12.86 0.44,0.66 1.04,1.08 1.58,1.64 0.23,0.25 0.27,0.54 0.12,0.85 -0.15,0.29 -0.39,0.44 -0.72,0.45 -0.37,0.01 -0.71,-0.12 -1.02,-0.39 -3.62,-3.09 -6.38,-7.29 -9.42,-10.95 -4.24,-5.12 -7.78,-10.23 -11.7,-15.36 -0.03,-0.04 -0.06,-0.06 -0.11,-0.05 -0.11,0.01 -0.18,0.09 -0.19,0.24 -0.01,0.09 0,0.17 0.03,0.26 4.51,10.67 11.19,19.13 18.35,28.19 0.21,0.26 0.33,0.58 0.35,0.91 0.05,0.77 -0.11,1.33 -0.49,1.69 -0.75,0.71 -1.46,0.67 -2.13,-0.12 -18.33,-21.36 -32.17,-44.99 -41.53,-70.88 -0.83,-2.28 -1.18,-4.76 -1.06,-7.45 0.02,-0.45 0.52,-0.71 0.9,-0.47 20.44,12.82 43.87,20.45 67.04,26.45 2.48,0.64 3,-0.1 1.56,-2.22 l -4.27,-6.3 c -1.35,-1.98 -3.45,-3.33 -5.82,-3.73 -3.33,-0.57 -7.03,-1.4 -11.11,-2.49 -0.41,-0.11 -0.54,0.04 -0.4,0.44 l 1.05,2.94 c 0.23,0.65 0.09,0.74 -0.41,0.27 -0.95,-0.9 -1.68,-1.97 -2.17,-3.22 -0.11,-0.28 -0.29,-0.52 -0.52,-0.71 -0.97,-0.81 -2.07,-1.43 -3.32,-1.86 -17.83,-6.12 -34.42,-14.25 -49.79,-24.4 -3.76,-2.48 -7.34,-0.06 -7.09,4.18 0.15,2.53 0.55,5.11 1.19,7.74 7.95,32.9 24.86,61.39 47.04,87.89 20.75,24.78 45.86,45.69 75.35,62.73 25.86,14.95 55.79,25.86 85.3,27.55 14.99,0.85 29.81,-1.24 44.48,-6.27 16.88,-5.78 29.11,-15.81 39.43,-29.96 0.95,-1.31 0.63,-1.93 -0.98,-1.86 -0.18,0.01 -0.34,0.06 -0.49,0.17 -7.75,5.59 -16.09,10.76 -25.04,15.49 -2.81,1.49 -3.06,1.15 -0.73,-1.03 4.11,-3.86 8.39,-8.17 12.85,-12.93 0.26,-0.28 0.36,-0.54 0.31,-0.79 -0.06,-0.29 -0.33,-0.48 -0.62,-0.44 -3.83,0.52 -7.34,1.5 -10.53,2.93 -22.09,9.95 -47.23,15.69 -71.39,13.89 -19.53,-1.45 -38.11,-5.83 -55.74,-13.14 -9.52,-3.95 -17.87,-8.05 -25.06,-12.32 -21.34,-12.68 -40.07,-28.46 -56.2,-47.33 -0.69,-0.8 -0.54,-1.41 0.43,-1.83 1.56,-0.67 3,-1.35 4.38,-2.37 6.11,-4.57 11.62,-7.75 16.53,-9.56 8.95,-3.3 17.9,-5.01 26.85,-5.14 1.56,-0.02 1.57,-0.19 0.04,-0.5 -8.25,-1.71 -16.55,-1.67 -24.89,0.12 -0.35,0.07 -0.67,0 -0.96,-0.22 -3.23,-2.45 -6.62,-4.49 -10.18,-6.14 -0.54,-0.25 -0.69,-0.11 -0.45,0.44 1.08,2.4 4.71,7.55 7.68,7.72 0.53,0.03 0.59,0.21 0.17,0.54"
       id="path12"
       style="stroke:none;stroke-opacity:1" />
    <path
       stroke="#828382"
       vector-effect="non-scaling-stroke"
       d="m 330.9,416.45 c 1.69,3.22 3.51,6.41 5.45,9.56 0.51,0.83 1.22,1.33 2.13,1.5 10.97,2.06 21.78,3.75 32.44,5.06 0.39,0.05 0.69,-0.34 0.55,-0.71 -1.91,-4.86 -11.15,-14.94 -16.68,-15.07 -8.14,-0.19 -16,-0.46 -23.59,-0.81 -0.37,-0.01 -0.47,0.14 -0.3,0.47"
       id="path14"
       style="stroke:none;stroke-opacity:1" />
    <path
       stroke="#828382"
       vector-effect="non-scaling-stroke"
       d="m 423.33,440.8 c -2.9,-7.49 -8.94,-14.95 -14.62,-19.79 -3.51,-2.98 -6.94,-4.42 -11.88,-4.42 -10.22,-0.01 -20.45,0.06 -30.7,0.19 -1.09,0.01 -1.24,0.4 -0.47,1.16 4.3,4.28 7.8,8.27 10.55,14.09 0.38,0.8 1.11,1.36 1.97,1.5 l 44.81,7.69 c 0.24,0.04 0.43,-0.19 0.34,-0.42"
       id="path16"
       style="stroke:none;stroke-opacity:1" />
    <path
       stroke="#828382"
       vector-effect="non-scaling-stroke"
       d="m 350.86,486.4 c -1.53,1.88 -3.37,2.18 -5.5,0.89 -5.87,-3.53 -11.5,-9.27 -17.59,-13.66 -1.17,-0.84 -2.09,-0.7 -3.35,-0.29 -4.69,1.54 -8.71,3.37 -12.06,5.48 -0.67,0.43 -0.77,0.95 -0.29,1.58 6.2,8.12 13.19,15.4 20.96,21.84 0.23,0.2 0.57,0.2 0.8,0 2.79,-2.4 5.72,-4.87 8.8,-7.41 3.12,-2.57 6.43,-4.09 9.62,-6.3 2.36,-1.63 4.84,-3.07 7.45,-4.32 18.31,-8.8 37.84,-11.06 58.57,-6.78 6.26,1.29 13.43,3.87 18.97,6.89 5.66,3.09 11.81,8.18 18.44,15.29 0.14,0.16 0.4,0.11 0.47,-0.09 0.13,-0.34 0.1,-0.67 -0.09,-0.98 -3.96,-6.49 -8.9,-11.77 -14.81,-15.84 -2.57,-1.77 -5.9,-3.5 -9.99,-5.19 -17.57,-7.27 -36.91,-6.99 -56.53,-2.98 -0.38,0.08 -0.78,-0.04 -1.05,-0.33 -2.07,-2.19 -4.26,-4.21 -6.58,-6.04 -0.04,-0.03 -0.09,-0.05 -0.14,-0.04 -0.11,0 -0.12,0.04 -0.04,0.11 2.11,1.85 3.88,3.94 5.31,6.26 0.28,0.45 0.09,1.05 -0.4,1.26 -2.15,0.9 -4.48,0.64 -6.31,-0.8 -2.42,-1.89 -4.91,-3.73 -7.47,-5.52 -2.2,-1.55 -2.51,-1.23 -0.92,0.94 1.63,2.23 3.68,4.4 6.14,6.53 0.82,0.71 0.72,1.25 -0.3,1.61 l -2.49,0.87 c -0.74,0.26 -1.56,0.15 -2.21,-0.3 -2.15,-1.52 -4.28,-3.11 -6.41,-4.78 -5.18,-4.04 -11.58,-3.8 -17.7,-2.01 -0.46,0.13 -0.51,0.36 -0.16,0.69 4.23,3.96 8.59,7.8 13.06,11.53 1.07,0.89 2.26,1.35 3.55,1.36 0.27,0 0.42,0.32 0.25,0.53"
       id="path18"
       style="stroke:none;stroke-opacity:1" />
    <path
       stroke="#828382"
       vector-effect="non-scaling-stroke"
       d="m 387.53,485.15 c 1.7,-0.41 3.38,-0.65 5.03,-0.71 14.74,-0.56 28.44,1.85 41.09,7.22 1.76,0.75 3.25,1.84 4.97,2.48 1.57,0.59 1.72,0.33 0.46,-0.77 -1.98,-1.72 -4.24,-3.19 -6.78,-4.41 -11.61,-5.57 -23.93,-6.6 -37.41,-6.12 -2.92,0.11 -5.56,0.47 -7.93,1.09 -2.74,0.72 -5.63,1.41 -8.66,2.08 -0.44,0.09 -0.64,0.61 -0.37,0.98 2.97,3.99 6.11,7.61 9.4,10.86 10.53,10.39 20.35,18.64 29.48,24.75 15.52,10.4 37.64,18.61 56.64,14.24 0.23,-0.05 0.46,-0.13 0.68,-0.24 0.52,-0.27 0.49,-0.45 -0.09,-0.56 -14.54,-2.59 -27.18,-8.8 -40.14,-16.54 -13.19,-7.88 -25.39,-16.66 -36.61,-26.33 -2.55,-2.19 -5.1,-4.34 -7.63,-6.45 -0.29,-0.23 -0.6,-0.41 -0.95,-0.54 l -1.22,-0.43 c -0.67,-0.23 -0.66,-0.43 0.04,-0.6"
       id="path20"
       style="stroke:none;stroke-opacity:1" />
    <path
       stroke="#828382"
       vector-effect="non-scaling-stroke"
       d="m 390.54,519.59 c 1.33,1.13 1.22,1.28 -0.31,0.45 -13.13,-7.14 -25.64,-15.98 -37.53,-26.51 -1.08,-0.96 -1.98,-0.48 -3.03,0.1 -5.12,2.83 -9.99,5.89 -14.62,9.19 -0.43,0.31 -0.47,0.93 -0.09,1.3 2.14,2.09 4.11,3.72 5.92,4.89 3.83,2.49 7.43,5.58 11.26,7.83 3.97,2.33 8.04,4.77 12.2,7.34 0.23,0.14 0.53,-0.05 0.5,-0.32 l -0.03,-0.31 c -0.06,-0.58 -0.35,-1.11 -0.8,-1.47 -5.71,-4.55 -11.23,-8.35 -16.57,-11.41 -2.64,-1.51 -4.92,-3.65 -6.84,-6.4 -0.13,-0.19 -0.04,-0.44 0.17,-0.52 l 0.3,-0.11 c 0.53,-0.19 1.01,-0.09 1.43,0.28 2.51,2.23 4.69,4.03 6.52,5.4 5.51,4.08 11.16,8.28 16.96,12.59 0.32,0.23 0.57,0.57 0.69,0.95 l 0.69,2.15 c 0.12,0.38 0.39,0.7 0.75,0.89 12.03,6.12 25.44,11.69 39.25,14.22 13.99,2.55 28.69,3.52 44.08,2.9 1.45,-0.06 1.47,-0.27 0.07,-0.62 -2.3,-0.58 -4.73,-0.69 -7.04,-1.44 -5.95,-1.9 -11.73,-4.18 -17.36,-6.84 -0.17,-0.08 -0.31,-0.22 -0.37,-0.4 -0.07,-0.17 -0.17,-0.3 -0.32,-0.39 -5.06,-3.04 -9.59,-6.08 -13.59,-9.12 -9.27,-7.04 -18.86,-15.22 -28.79,-24.54 -4.26,-4 -8.19,-8.4 -12.51,-12.45 -0.7,-0.65 -1.7,-0.83 -2.58,-0.48 l -13.18,5.34 c -0.55,0.23 -0.58,0.5 -0.07,0.82 1.61,1.01 3.11,2.02 4.57,3.28 8.81,7.63 17.88,14.59 27.21,20.88 0.99,0.66 2.13,1.72 3.06,2.53"
       id="path22"
       style="stroke:none;stroke-opacity:1" />
    <path
       stroke="#828382"
       vector-effect="non-scaling-stroke"
       d="m 462.94,758.52 c -10.85,-13.85 -18.49,-29.39 -22.91,-46.61 -0.28,-1.08 -0.49,-1.07 -0.64,0.04 -2.57,19.26 -1.31,38.43 3.79,57.52 3.09,11.59 7.56,21.88 13.39,30.86 3.04,4.69 6.63,8.43 10.42,12.24 0.72,0.72 0.83,0.64 0.34,-0.25 -3.21,-5.75 -6.27,-11.51 -9.18,-17.28 -3.86,-7.67 -6.5,-14.74 -7.92,-21.23 -0.12,-0.54 0.44,-0.97 0.93,-0.73 0.79,0.38 1.47,0.96 2.02,1.74 3.49,4.89 6.62,9.57 9.4,14.04 3.99,6.42 7.17,11.07 9.52,13.94 4.03,4.91 7.84,9.23 11.43,12.96 1.42,1.46 2.88,2.19 4.94,2.34 2.17,0.17 4.43,0.42 6.78,0.75 0.93,0.14 1.03,-0.1 0.32,-0.71 -7.75,-6.61 -15.16,-13.23 -21.68,-21.07 -0.49,-0.59 -0.75,-1.24 -0.8,-1.95 -0.04,-0.67 0.19,-0.78 0.68,-0.32 10.28,9.38 21.27,18.78 33.43,24.36 0.44,0.21 0.9,0.36 1.39,0.45 0.3,0.06 0.51,-0.28 0.34,-0.53 -6.77,-9.79 -12.75,-19.44 -17.96,-28.95 -0.8,-1.47 -1.5,-2.97 -2.11,-4.52 -0.96,-2.48 -0.65,-2.65 0.93,-0.51 9.22,12.44 20.01,23.68 32.71,32.36 2.03,1.39 3.94,2.05 5.74,1.98 5.76,-0.23 12.45,-0.79 20.07,-1.69 1.04,-0.12 2.08,-0.34 3.11,-0.67 0.66,-0.21 0.81,-1.07 0.27,-1.5 -2.47,-1.96 -5,-3.82 -7.57,-5.57 -7.73,-5.29 -15.79,-11.06 -24.19,-17.31 -4.9,-3.63 -9.24,-7.17 -13.02,-10.62 -10.77,-9.78 -20.52,-21.41 -28.89,-33.04 -3.95,-5.5 -7.31,-11.29 -11.03,-16.86 -5.81,-8.68 -10.57,-17.84 -14.08,-27.54 -0.47,-1.31 -0.67,-1.27 -0.59,0.12 0.45,7.71 1.73,15.63 3.82,23.74 0.13,0.5 0.13,0.79 0.01,0.86 -0.36,0.21 -0.81,0.07 -0.99,-0.3 -6.9,-14.15 -10.66,-28.56 -11.29,-43.24 -0.05,-1.24 -0.2,-1.25 -0.45,-0.04 -0.43,2.13 -0.69,4.26 -0.79,6.37 -0.53,10.81 0.6,20.89 3.39,30.23 1.71,5.74 4.33,12 7.88,18.77 3.27,6.23 6.39,11.99 9.38,17.28 0.03,0.05 0.02,0.1 -0.03,0.13 l -0.01,0.01 c -0.11,0.07 -0.21,0.06 -0.3,-0.05"
       id="path24"
       style="stroke:none;stroke-opacity:1" />
    <path
       stroke="#828382"
       vector-effect="non-scaling-stroke"
       d="m 477.61,732.15 c -0.42,-0.41 -0.79,-0.86 -1.1,-1.35 -6.66,-10.57 -11.95,-21.81 -15.86,-33.72 -0.05,-0.15 -0.14,-0.2 -0.29,-0.16 l -0.24,0.06 c -0.04,0.01 -0.06,0.03 -0.05,0.08 1.79,9.71 3.75,17.63 5.86,23.76 6.89,20.06 20.65,38.87 38.74,51.49 3.75,2.61 7.5,5.29 11.27,8.04 0.63,0.46 0.81,0.32 0.54,-0.41 -0.64,-1.75 -2.07,-3.27 -3.1,-4.82 -2.53,-3.81 -4.7,-7.35 -6.51,-10.62 -5.81,-10.47 -12.49,-20.64 -20.06,-30.52 -6.89,-8.98 -11.58,-15.84 -16.51,-24.31 -0.12,-0.21 -0.44,-0.17 -0.5,0.07 -0.04,0.16 -0.03,0.32 0.02,0.47 2.29,6.65 5.12,13.79 8.51,21.44 0.61,1.39 0.37,1.56 -0.72,0.5"
       id="path26"
       style="stroke:none;stroke-opacity:1" />
    <path
       stroke="#828382"
       vector-effect="non-scaling-stroke"
       d="m 415.2889,715.1918 c 0.5411,0.0582 1.1311,-1.3218 1.3156,-3.0877 0.1855,-1.7641 -0.0945,-3.2341 -0.6334,-3.2959 -0.5411,-0.0582 -1.1311,1.3218 -1.3156,3.0877 -0.1855,1.7641 0.0945,3.2341 0.6334,3.2959"
       id="path28"
       style="stroke:none;stroke-opacity:1" />
    <path
       stroke="#828382"
       vector-effect="non-scaling-stroke"
       d="m 396.6338,742.2218 c 0.4862,0.1082 0.9962,-0.3718 1.1462,-1.0531 0.15,-0.6887 -0.13,-1.3287 -0.6138,-1.4305 -0.4862,-0.1082 -0.9962,0.3718 -1.1462,1.0531 -0.15,0.6887 0.13,1.3287 0.6138,1.4305"
       id="path30"
       style="stroke:none;stroke-opacity:1" />
    <path
       stroke="#828382"
       vector-effect="non-scaling-stroke"
       d="m 435.31,778.51 c -4.69,-8.45 -8.85,-17.99 -13.59,-27.94 -0.53,-1.11 -0.75,-1.06 -0.66,0.17 0.75,11.16 3.68,21.92 8.79,32.27 2.64,5.37 5.78,9.39 10.02,13.4 5.6,5.29 11.23,10.21 16.9,14.75 0.95,0.76 1.92,1.44 2.92,2.04 0.96,0.57 1.07,0.44 0.34,-0.4 -9.21,-10.65 -17.83,-21.87 -24.72,-34.29"
       id="path32"
       style="stroke:none;stroke-opacity:1" />
    <path
       stroke="#828382"
       vector-effect="non-scaling-stroke"
       d="m 409.49,765.54 -4.38,-13.78 c 0,-0.01 -0.01,-0.02 -0.02,-0.01 l -0.06,0.02 c -0.61,0.19 -0.15,3.36 1.03,7.09 l 0.11,0.34 c 1.18,3.72 2.64,6.58 3.25,6.39 l 0.05,-0.02 c 0.01,0 0.02,-0.02 0.02,-0.03"
       id="path34"
       style="stroke:none;stroke-opacity:1" />
    <path
       stroke="#828382"
       vector-effect="non-scaling-stroke"
       d="M 420.5725,777.0745 C 421,776.87 419.27,772.31 416.7091,766.8681 414.15,761.43 411.73,757.19 411.3075,757.3855 c -0.4275,0.2045 1.3025,4.7645 3.8634,10.2064 2.5591,5.4381 4.9791,9.6781 5.4016,9.4826"
       id="path36"
       style="stroke:none;stroke-opacity:1" />
    <path
       stroke="#828382"
       vector-effect="non-scaling-stroke"
       d="m 542.71,734.05 -21.37,-21.22 c -0.02,-0.02 -0.05,-0.02 -0.07,0 l -0.03,0.02 c -0.73,0.75 3.42,6.06 9.28,11.88 l 0.23,0.23 c 5.85,5.81 11.2,9.93 11.94,9.19 l 0.02,-0.03 c 0.02,-0.02 0.02,-0.05 0,-0.07"
       id="path38"
       style="stroke:none;stroke-opacity:1" />
    <path
       stroke="#828382"
       vector-effect="non-scaling-stroke"
       d="M 570.416,761.3266 C 570.55,761.2 569.56,759.94 568.2098,758.5133 566.86,757.08 565.66,756.03 565.524,756.1534 c -0.134,0.1266 0.856,1.3866 2.2062,2.8133 1.3498,1.4333 2.5498,2.4833 2.6858,2.3599"
       id="path40"
       style="stroke:none;stroke-opacity:1" />
    <path
       stroke="#828382"
       vector-effect="non-scaling-stroke"
       d="m 339,323.39 c -0.18,-0.12 -0.42,-0.03 -0.49,0.17 -0.05,0.15 -0.06,0.3 -0.04,0.46 0.03,0.17 0.08,0.32 0.17,0.46 1.31,2.06 2.87,3.95 4.7,5.68 4.79,4.52 9.39,9.59 14.91,13.21 0.37,0.24 0.88,0.16 1.16,-0.19 l 0.26,-0.32 c 0.19,-0.24 0.16,-0.58 -0.07,-0.78 -4.56,-3.83 -8.98,-7.68 -13.26,-11.57 -2.57,-2.34 -4.45,-5.27 -7.34,-7.12"
       id="path42"
       style="stroke:none;stroke-opacity:1" />
    <path
       stroke="#828382"
       vector-effect="non-scaling-stroke"
       d="M 590.0134,401.8907 C 590.24,401.53 590.12,401.05 589.7629,400.831 l -10.465,-6.4633 C 578.94,394.14 578.46,394.26 578.2382,394.6182 l -0.0316,0.0511 c -0.2266,0.3607 -0.1066,0.8407 0.2505,1.0597 l 10.465,6.4633 c 0.3579,0.2277 0.8379,0.1077 1.0597,-0.2505 l 0.0316,-0.0511"
       id="path44"
       style="stroke:none;stroke-opacity:1" />
    <path
       stroke="#828382"
       vector-effect="non-scaling-stroke"
       d="m 554.37,421.3 c 0.25,-5.25 -22.4,-8.87 -25.9,-9.23 -0.26,-0.03 -0.45,0.07 -0.57,0.3 l -0.13,0.26 c -0.04,0.08 0,0.19 0.09,0.2 9.37,1.99 17.98,4.95 25.81,8.88 0.45,0.22 0.68,0.08 0.7,-0.41"
       id="path46"
       style="stroke:none;stroke-opacity:1" />
    <path
       stroke="#828382"
       vector-effect="non-scaling-stroke"
       d="m 625.38,423.64 c 4.95,2.01 10.38,4.7 16.29,8.07 0.33,0.19 0.73,-0.12 0.63,-0.49 -0.07,-0.26 -0.22,-0.48 -0.43,-0.66 -6.79,-5.79 -14.7,-9.31 -23.72,-10.54 -1.89,-0.26 -1.95,-0.04 -0.18,0.66 2.37,0.93 4.84,1.92 7.41,2.96"
       id="path48"
       style="stroke:none;stroke-opacity:1" />
    <path
       stroke="#828382"
       vector-effect="non-scaling-stroke"
       d="m 435.0735,426.53 c 0.0565,-0.53 -0.3235,-1 -0.8544,-1.0551 l -1.0939,-0.1149 c -0.5252,-0.06 -0.9952,0.33 -1.0551,0.8544 l -0.0836,0.7956 c -0.0565,0.53 0.3235,1 0.8544,1.0551 l 1.0939,0.1149 c 0.5252,0.06 0.9952,-0.33 1.0551,-0.8544 l 0.0836,-0.7956"
       id="path50"
       style="stroke:none;stroke-opacity:1" />
    <path
       stroke="#828382"
       vector-effect="non-scaling-stroke"
       d="m 445.017,427.1749 c 0.053,-0.4849 -0.297,-0.9249 -0.787,-0.9823 l -1.153,-0.1272 c -0.487,-0.0554 -0.927,0.2946 -0.9823,0.7869 l -0.1317,1.1928 c -0.053,0.4849 0.297,0.9249 0.787,0.9823 l 1.153,0.1272 c 0.487,0.0554 0.927,-0.2946 0.9823,-0.7869 l 0.1317,-1.1928"
       id="path52"
       style="stroke:none;stroke-opacity:1" />
    <path
       stroke="#828382"
       vector-effect="non-scaling-stroke"
       d="m 455.0237,430.677 c 0.1963,-0.537 -0.1937,-1.177 -0.8614,-1.4155 -0.6723,-0.2415 -1.3723,-0.002 -1.566,0.5415 -0.1963,0.537 0.1937,1.177 0.8614,1.4155 0.6723,0.2415 1.3723,0.002 1.566,-0.5415"
       id="path54"
       style="stroke:none;stroke-opacity:1" />
    <path
       stroke="#828382"
       vector-effect="non-scaling-stroke"
       d="m 458.83,440.68 c 18.42,5.8 37.39,11.64 53.63,22.39 0.07,0.05 0.14,0.04 0.2,-0.03 l 0.17,-0.2 c 0.05,-0.07 0.05,-0.13 -0.01,-0.2 -1.85,-1.77 -3.87,-3.38 -6.06,-4.84 -6.14,-4.08 -12.4,-7.42 -19.47,-9.81 -9.32,-3.15 -18.81,-5.65 -28.47,-7.52 -0.04,-0.01 -0.07,0.01 -0.08,0.06 -0.01,0.03 -0.01,0.06 0.01,0.09 0.02,0.03 0.05,0.05 0.08,0.06"
       id="path56"
       style="stroke:none;stroke-opacity:1" />
    <path
       stroke="#828382"
       vector-effect="non-scaling-stroke"
       d="m 638.42,445.8 c -3.5,-3.39 -10.92,-4.28 -15.22,-3.69 -0.05,0.01 -0.08,0.04 -0.11,0.09 -0.01,0.03 -0.02,0.06 -0.02,0.1 0,0.15 0.08,0.24 0.23,0.25 5.42,0.42 10.01,1.74 14.89,3.61 0.67,0.25 0.75,0.13 0.23,-0.36"
       id="path58"
       style="stroke:none;stroke-opacity:1" />
    <path
       stroke="#828382"
       vector-effect="non-scaling-stroke"
       d="m 593.99,458.76 c 3.1,-2.73 5.85,-6.05 9.32,-8.28 3.19,-2.06 6.57,-3.98 10.12,-5.76 0.06,-0.03 0.08,-0.07 0.06,-0.13 l -0.16,-0.42 c -0.06,-0.16 -0.17,-0.21 -0.33,-0.16 -8.21,2.53 -14.71,7.3 -19.51,14.31 -1.01,1.48 -0.85,1.63 0.5,0.44"
       id="path60"
       style="stroke:none;stroke-opacity:1" />
    <path
       stroke="#828382"
       vector-effect="non-scaling-stroke"
       d="m 645.38,458.03 c -3.76,-6.53 -10.35,-10.55 -17.8,-10.55 -12.21,-0.01 -22.67,4.86 -31.36,14.59 -0.1,0.11 -0.1,0.22 0.01,0.33 l 0.22,0.22 c 0.02,0.02 0.04,0.02 0.06,0 8.03,-6.96 19.19,-11.78 30.04,-11.76 7.79,0.02 12.98,2.67 18.4,7.53 0.89,0.79 1.03,0.67 0.43,-0.36"
       id="path62"
       style="stroke:none;stroke-opacity:1" />
    <path
       stroke="#828382"
       vector-effect="non-scaling-stroke"
       d="m 663.92,485.13 c 0.28,-6.16 -0.25,-12.43 -1.73,-18.36 -0.91,-3.63 -3.05,-9.2 -6.16,-11.23 -1.57,-1.03 -1.83,-0.76 -0.8,0.81 1.79,2.71 3.26,5.89 4.41,9.52 1.99,6.29 3.28,12.7 3.87,19.25 0.01,0.13 0.09,0.2 0.22,0.19 h 0.01 c 0.11,0 0.17,-0.06 0.18,-0.18"
       id="path64"
       style="stroke:none;stroke-opacity:1" />
    <path
       stroke="#828382"
       vector-effect="non-scaling-stroke"
       d="m 639.98,506.95 c 0.61,-0.05 0.75,0.19 0.41,0.7 -3.31,5.01 -8.12,8 -14.45,8.98 -4.25,0.66 -7.8,0.98 -10.64,0.97 -0.07,0 -0.1,0.03 -0.11,0.1 l -0.03,0.49 c -0.01,0.09 0.04,0.15 0.13,0.16 15.34,2.03 26.87,-3.13 34.59,-15.47 0.14,-0.22 0.48,-0.18 0.55,0.08 0.63,2.26 0.69,4.38 0.17,6.35 -0.22,0.83 -0.75,1.64 -0.88,2.47 -0.07,0.43 0.08,0.52 0.43,0.27 1.14,-0.83 2.44,-1.39 3.9,-1.68 6.59,-1.31 3.95,-10.79 4.6,-15.11 0.55,-3.68 -0.18,-8.09 -2.21,-13.23 -7.22,-18.3 -20.76,-31.32 -41.9,-24.01 -12.89,4.46 -20.45,13.28 -25.83,25.52 -0.8,1.82 -2.08,3.28 -3.11,4.95 -0.26,0.41 0.1,0.93 0.58,0.84 4.73,-0.91 8.28,-3.05 10.65,-6.41 0.26,-0.37 0.84,-0.25 0.93,0.19 0.8,3.96 2.19,7.44 4.17,10.45 4.9,7.46 15.12,12.67 23.41,13.7 4.67,0.57 9.9,0.09 14.64,-0.31"
       id="path66"
       style="stroke:none;stroke-opacity:1" />
    <path
       stroke="#828382"
       vector-effect="non-scaling-stroke"
       d="m 556.6288,475.2112 c 0.4912,0.1088 1.0412,-0.5012 1.2393,-1.3727 0.1919,-0.8685 -0.0481,-1.6585 -0.5369,-1.7697 -0.4912,-0.1088 -1.0412,0.5012 -1.2393,1.3727 -0.1919,0.8685 0.0481,1.6585 0.5369,1.7697"
       id="path68"
       style="stroke:none;stroke-opacity:1" />
    <path
       stroke="#828382"
       vector-effect="non-scaling-stroke"
       d="m 696.16,481.15 c -1.69,1.54 -3.09,3.27 -4.2,5.18 -0.22,0.38 -0.18,0.41 0.12,0.08 l 4.86,-5.21 c 0.26,-0.28 0.2,-0.39 -0.18,-0.33 -0.24,0.04 -0.44,0.13 -0.6,0.28"
       id="path70"
       style="stroke:none;stroke-opacity:1" />
    <path
       stroke="#828382"
       vector-effect="non-scaling-stroke"
       d="m 690.17,494.99 0.23,0.11 c 0.06,0.03 0.11,0.01 0.14,-0.04 1.12,-2.07 2.6,-3.86 4.43,-5.35 2.15,-1.75 4.23,-3.42 6.24,-5.02 0.13,-0.1 0.15,-0.29 0.04,-0.42 l -0.17,-0.19 c -0.27,-0.31 -0.59,-0.37 -0.96,-0.16 -4.47,2.54 -8.71,5.85 -10.07,10.81 -0.03,0.12 0.01,0.21 0.12,0.26"
       id="path72"
       style="stroke:none;stroke-opacity:1" />
    <path
       stroke="#828382"
       vector-effect="non-scaling-stroke"
       d="m 624.68,511.1 c -10.6,0.26 -23.73,-5.04 -29.85,-13.93 -0.9,-1.31 -1.11,-1.2 -0.63,0.31 0.53,1.67 1.41,3.19 2.64,4.56 7.41,8.27 16.71,11.43 27.92,9.48 0.11,-0.02 0.17,-0.09 0.16,-0.2 v -0.01 c -0.01,-0.15 -0.09,-0.22 -0.24,-0.21"
       id="path74"
       style="stroke:none;stroke-opacity:1" />
    <path
       stroke="#828382"
       vector-effect="non-scaling-stroke"
       d="m 574.12,498.94 c -0.15,0.17 -0.22,0.36 -0.22,0.58 -0.01,0.34 0.29,0.6 0.63,0.55 0.51,-0.08 0.7,-0.38 0.56,-0.9 -0.12,-0.44 -0.67,-0.57 -0.97,-0.23"
       id="path76"
       style="stroke:none;stroke-opacity:1" />
    <path
       stroke="#828382"
       vector-effect="non-scaling-stroke"
       d="m 709.36,507.87 c -2.18,-4.56 2.95,-5.6 5.95,-6.66 2.09,-0.73 2.03,-1.02 -0.18,-0.87 -0.97,0.07 -2.15,0.35 -3.56,0.86 -3.42,1.23 -8.46,6.2 -11.78,5.72 -0.48,-0.07 -0.79,0.13 -0.93,0.6 -0.19,0.65 -0.02,1.15 0.52,1.5 3.35,2.21 6.28,5.08 8.79,8.6 0.54,0.76 1.43,1.2 2.37,1.16 2.86,-0.11 5.66,0.27 8.39,1.15 3.72,1.19 4.58,5.4 4.8,8.76 0.01,0.09 0.06,0.14 0.15,0.15 h 0.01 c 0.09,0.01 0.14,-0.03 0.16,-0.12 0.55,-3.01 1.55,-5.99 3.02,-8.93 0.2,-0.41 0.28,-0.83 0.25,-1.28 -0.25,-3.5 -1.81,-6.55 -4.66,-9.15 -0.57,-0.53 -1.26,-0.74 -2.07,-0.65 -2.84,0.32 -5.7,0.53 -8.57,0.63 -1.29,0.05 -2.17,-0.44 -2.66,-1.47"
       id="path78"
       style="stroke:none;stroke-opacity:1" />
    <path
       stroke="#828382"
       vector-effect="non-scaling-stroke"
       d="m 579.75,512.73 c 1.2,8.67 7.41,13.56 15.77,14.73 2.58,0.37 2.66,0.07 0.23,-0.88 -4.9,-1.91 -9.23,-5.05 -12.41,-9.02 -1.24,-1.56 -1.94,-3.48 -3.11,-5.03 -0.41,-0.55 -0.57,-0.48 -0.48,0.2"
       id="path80"
       style="stroke:none;stroke-opacity:1" />
    <path
       stroke="#828382"
       vector-effect="non-scaling-stroke"
       d="m 573.67,518.82 c 0.15,2.29 0.98,3.38 2.51,3.28 0.47,-0.03 0.7,-0.58 0.39,-0.94 l -2.27,-2.6 c -0.47,-0.53 -0.68,-0.45 -0.63,0.26"
       id="path82"
       style="stroke:none;stroke-opacity:1" />
    <path
       stroke="#828382"
       vector-effect="non-scaling-stroke"
       d="m 568.3804,521.6796 c 0.2796,-0.01 0.4896,-0.5296 0.4694,-1.1727 -0.0198,-0.6369 -0.2498,-1.1569 -0.5302,-1.1465 -0.2796,0.01 -0.4896,0.5296 -0.4694,1.1727 0.0198,0.6369 0.2498,1.1569 0.5302,1.1465"
       id="path84"
       style="stroke:none;stroke-opacity:1" />
    <path
       stroke="#828382"
       vector-effect="non-scaling-stroke"
       d="M 619.8496,540.3873 C 619.49,540 618.35,540.47 617.3153,541.4379 c -1.0353,0.9721 -1.5853,2.0621 -1.2249,2.4548 0.3596,0.3873 1.4996,-0.0827 2.5343,-1.0506 1.0353,-0.9721 1.5853,-2.0621 1.2249,-2.4548"
       id="path86"
       style="stroke:none;stroke-opacity:1" />
    <path
       stroke="#828382"
       vector-effect="non-scaling-stroke"
       d="m 609.57,548.52 c -1.38,0.25 -2.1,1.07 -2.16,2.44 -0.02,0.47 0.14,0.54 0.48,0.22 l 2.04,-1.95 c 0.68,-0.65 0.56,-0.88 -0.36,-0.71"
       id="path88"
       style="stroke:none;stroke-opacity:1" />
    <path
       stroke="#828382"
       vector-effect="non-scaling-stroke"
       d="m 560.61,567.71 16.93,-15.78 c 0.08,-0.08 0.08,-0.2 0.01,-0.28 l -0.09,-0.09 c -0.41,-0.45 -4.54,2.73 -9.22,7.09 l -0.27,0.26 c -4.68,4.36 -8.14,8.26 -7.72,8.7 l 0.08,0.09 c 0.08,0.08 0.2,0.09 0.28,0.01"
       id="path90"
       style="stroke:none;stroke-opacity:1" />
    <path
       stroke="#828382"
       vector-effect="non-scaling-stroke"
       d="M 550.5325,569.0444 C 550.91,569.39 552.42,568.35 553.9172,566.7227 555.41,565.1 556.32,563.5 555.9475,563.1556 555.57,562.81 554.06,563.85 552.5628,565.4773 551.07,567.1 550.16,568.7 550.5325,569.0444"
       id="path92"
       style="stroke:none;stroke-opacity:1" />
    <path
       stroke="#828382"
       vector-effect="non-scaling-stroke"
       d="m 544.72,601.01 0.65,-4.7 c 0.09,-0.64 -0.12,-0.75 -0.61,-0.34 -1.74,1.45 -2.83,3.28 -3.26,5.5 -1.19,6.2 -5.38,8.92 -9.66,12.64 -0.49,0.43 -0.42,0.57 0.21,0.4 1.1,-0.29 2.14,-0.75 3.12,-1.36 6.15,-3.88 12.11,-7.92 18.44,-11.83 8.5,-5.26 17.24,-10.96 26.23,-17.09 2.55,-1.74 2.39,-2.03 -0.46,-0.86 -6.98,2.86 -13.36,5.99 -19.15,9.38 -4.94,2.89 -9.95,5.75 -15.03,8.59 -0.38,0.21 -0.54,0.1 -0.48,-0.33"
       id="path94"
       style="stroke:none;stroke-opacity:1" />
    <path
       stroke="#828382"
       vector-effect="non-scaling-stroke"
       d="m 700.726,583.9457 c -0.136,-0.3857 -0.836,-0.4857 -1.5503,-0.2206 -0.7157,0.2649 -1.1857,0.7849 -1.0417,1.1692 0.136,0.3857 0.836,0.4857 1.5503,0.2206 0.7157,-0.2649 1.1857,-0.7849 1.0417,-1.1692"
       id="path96"
       style="stroke:none;stroke-opacity:1" />
    <path
       stroke="#828382"
       vector-effect="non-scaling-stroke"
       d="m 706.89,583.93 c -0.38,0.17 -0.71,0.44 -0.98,0.81 -0.13,0.18 -0.3,0.32 -0.5,0.43 -0.21,0.1 -0.37,0.25 -0.5,0.44 -0.25,0.38 -0.14,0.54 0.31,0.49 1.02,-0.13 1.73,-0.7 2.13,-1.73 0.21,-0.53 0.06,-0.67 -0.46,-0.44"
       id="path98"
       style="stroke:none;stroke-opacity:1" />
    <path
       stroke="#828382"
       vector-effect="non-scaling-stroke"
       d="m 700.47,593.8 c -9.39,5.78 -20.04,11.14 -31.99,17.08 -1.24,0.61 -2.55,1.14 -3.94,1.57 -1.72,0.53 -1.68,0.86 0.12,0.97 0.93,0.05 1.87,-0.07 2.82,-0.36 9.83,-3.07 19.35,-7.74 28.56,-13.99 2.18,-1.49 3.93,-2.9 5.25,-4.24 2.55,-2.59 2.28,-2.94 -0.82,-1.03"
       id="path100"
       style="stroke:none;stroke-opacity:1" />
    <path
       stroke="#828382"
       vector-effect="non-scaling-stroke"
       d="m 678.61,600.25 c 1.96,-1.29 4.01,-2.7 6.15,-4.21 0.09,-0.07 0.1,-0.14 0.04,-0.23 v -0.01 c -0.06,-0.08 -0.13,-0.09 -0.22,-0.04 -2.59,1.61 -4.63,3.04 -6.11,4.31 -0.91,0.79 -0.87,0.85 0.14,0.18"
       id="path102"
       style="stroke:none;stroke-opacity:1" />
    <path
       stroke="#828382"
       vector-effect="non-scaling-stroke"
       d="m 506,555.12 c -11.98,4.95 -24.02,8.53 -36.92,10.22 -7.59,0.99 -15,0.62 -22.44,0.55 -0.34,-0.01 -0.52,0.16 -0.55,0.5 l -0.02,0.28 c -0.02,0.2 0.13,0.38 0.33,0.4 13.59,1.53 27.03,0.67 40.33,-2.59 6.93,-1.7 13.36,-4.52 19.27,-8.45 0.09,-0.06 0.17,-0.14 0.23,-0.25 0.05,-0.1 0.1,-0.2 0.13,-0.31 0.08,-0.23 -0.14,-0.44 -0.36,-0.35"
       id="path104"
       style="stroke:none;stroke-opacity:1" />
    <path
       stroke="#828382"
       vector-effect="non-scaling-stroke"
       d="m 469.0075,558.162 c 0.002,-0.142 -0.1175,-0.262 -0.2618,-0.2582 l -21.8395,0.1524 c -0.1462,0.004 -0.2562,0.1138 -0.2582,0.2619 l 0.004,0.6399 c -0.002,0.142 0.1175,0.262 0.2618,0.2582 l 21.8395,-0.1524 c 0.1462,-0.004 0.2562,-0.1138 0.2582,-0.2619 l -0.005,-0.6399"
       id="path106"
       style="stroke:none;stroke-opacity:1" />
    <path
       stroke="#828382"
       vector-effect="non-scaling-stroke"
       d="m 409.326,425.9738 c 0.344,-1.0738 -1.576,-2.6538 -4.3056,-3.544 -2.7304,-0.8898 -5.2204,-0.7398 -5.5664,0.3364 -0.344,1.0738 1.576,2.6538 4.3056,3.544 2.7304,0.8898 5.2204,0.7398 5.5664,-0.3364"
       id="path108"
       style="stroke:none;stroke-opacity:1" />
    <path
       stroke="#828382"
       vector-effect="non-scaling-stroke"
       d="m 388.26,425.64 1.63,-0.47 c 0.34,-0.1 0.54,-0.46 0.44,-0.81 l -0.08,-0.29 c -0.37,-1.27 -1.24,-2.12 -1.95,-1.92 l -0.31,0.09 c -0.71,0.21 -0.99,1.4 -0.62,2.66 l 0.08,0.3 c 0.1,0.34 0.46,0.54 0.81,0.44"
       id="path110"
       style="stroke:none;stroke-opacity:1" />
    <path
       stroke="#828382"
       vector-effect="non-scaling-stroke"
       d="m 632.67,468.21 c -3.91,-2.68 -11.18,-3.92 -15.5,-1.63 -0.55,0.29 -0.51,0.42 0.11,0.37 4.86,-0.39 9.95,0.11 15.28,1.5 0.49,0.13 0.53,0.05 0.11,-0.24"
       id="path112"
       style="stroke:none;stroke-opacity:1" />
    <path
       stroke="#828382"
       vector-effect="non-scaling-stroke"
       d="m 426.13,533.88 c -0.9,-0.26 -1.73,-0.57 -2.48,-0.94 -5.99,-2.92 -12.22,-5.87 -18.71,-8.86 -0.09,-0.04 -0.16,-0.02 -0.21,0.06 l -0.23,0.29 c -0.09,0.13 -0.07,0.23 0.07,0.31 7.31,4.31 13.96,7.46 19.94,9.45 0.52,0.17 1.06,0.21 1.61,0.1 0.57,-0.11 0.57,-0.25 0.01,-0.41"
       id="path114"
       style="stroke:none;stroke-opacity:1" />
  </g>
  <path
     fill="#16151b"
     d="m 463.59452,22.22467 c 44.56,16.59 84.01,40.96 118.34,73.11 10.38,9.72 20.68,20.59 30.9,32.61 37.37,43.93 62.47,97.35 73.62,153.42 5.61,28.2 7.45,57.44 5.52,87.71 -3.62,56.85 -21.59,113.19 -52.41,161.61 -19.98,31.39 -44.25,58.89 -72.81,82.5 -39.68,32.81 -84.29,55.95 -133.82,69.42 -50.83,13.83 -102.49,15.24 -154.99,4.24 -6.79,-1.42 -13.47,-3.09 -20.06,-5.02 -34.37,-10.05 -67.2,-25.07 -98.49,-45.06 -42.77,-27.32 -78.88,-64.76 -106.34,-108.21 -25.38,-40.16 -42.27,-87.32 -48.74,-134.45 -8.23,-60.07 -1.14,-118.32 21.29,-174.75 15.34,-38.6 38.71,-74.61 66.98,-105.13 39.99,-43.17 88.06,-74.63 144.23,-94.39 26.63,-9.37 53.82,-15.26 81.55,-17.67 13.1,-1.13 27.42,-1.44 42.97,-0.92 34.54,1.17 68.94,8.58 102.26,20.98 z m -77.91,569.03 c -8.06,-3.4 -14.68,-6.42 -19.87,-9.06 -12.08,-6.16 -22.71,-14.43 -33.16,-22.47 -5.46,-4.2 -10.16,-8.72 -14.11,-13.56 -0.05,-0.05 -0.1,-0.1 -0.16,-0.14 -0.09,-0.05 -0.18,-0.06 -0.29,-0.03 -0.07,0.02 -0.11,0.09 -0.09,0.16 4.86,16.78 12.14,33.87 23.1,47.34 16.3,20.05 34.02,38.75 53.16,56.1 1.14,1.03 2.32,2 3.54,2.93 0.25,0.19 0.53,0.26 0.84,0.19 l 13.41,-2.95 c 0.56,-0.12 0.81,-0.77 0.48,-1.23 -2.51,-3.53 -5.18,-7.15 -8.01,-10.86 -1.05,-1.38 -1.77,-2.78 -2.15,-4.2 -0.25,-0.95 -0.02,-1.08 0.67,-0.4 4.05,3.93 8.22,8.25 12.5,12.96 1.18,1.3 2.64,1.8 4.38,1.51 3.11,-0.53 6.01,-1.42 8.68,-2.69 0.33,-0.15 0.41,-0.39 0.24,-0.72 -1.68,-3.3 -3.36,-6.56 -4.55,-10.07 -1.42,-4.17 -2.84,-8.05 -4.25,-11.65 -0.71,-1.81 -0.46,-1.96 0.75,-0.44 4.63,5.83 9.03,12.18 13.21,19.05 1.22,2.01 2.75,2.42 4.6,1.25 0.5,-0.31 0.7,-0.93 0.5,-1.48 -5.65,-15.23 -12.36,-29.45 -23.1,-41.48 -6.85,-7.67 -14.76,-14.68 -21.95,-22.29 -3.78,-4.01 -8.51,-8.25 -11.12,-12.93 -0.31,-0.55 -0.18,-0.68 0.37,-0.37 0.97,0.53 1.9,1.11 2.79,1.73 6.64,4.65 14.73,7.84 22.03,11.27 1.33,0.63 1.49,0.4 0.49,-0.68 -4.64,-4.96 -9.34,-10.12 -14.11,-15.47 -0.96,-1.08 -1.84,-2.2 -2.65,-3.37 -0.79,-1.15 -0.63,-1.29 0.47,-0.44 6.09,4.7 12.75,9.17 20,13.41 6.22,3.64 12.56,5.93 18.76,8.96 0.47,0.23 0.64,0.09 0.53,-0.42 -0.07,-0.32 -0.26,-0.62 -0.55,-0.9 -5.11,-4.8 -10.44,-9.18 -15.98,-13.13 -1.3,-0.93 -2.24,-2 -2.81,-3.21 -0.65,-1.36 -0.36,-1.59 0.85,-0.7 2.29,1.68 4.71,3.28 7.25,4.8 1.76,1.05 2.08,0.72 0.97,-1 -4.94,-7.63 -9.21,-16.16 -12.81,-25.59 -0.07,-0.17 0.05,-0.36 0.23,-0.39 0.25,-0.04 0.44,0.04 0.58,0.23 3.59,4.98 7.77,9.43 12.52,13.34 5.67,4.66 11.11,9.55 16.88,14.4 9.42,7.91 19.16,14.68 29.22,20.32 0.83,0.47 0.78,0.74 -0.17,0.83 -7.81,0.68 -15.3,0.81 -22.48,0.39 -0.43,-0.02 -0.55,0.16 -0.35,0.54 7.94,14.97 11.3,30.87 8.98,47.83 -0.04,0.27 0.23,0.48 0.48,0.38 20.92,-8.19 40.42,-18.28 58.5,-30.27 5.53,-3.67 11.09,-7.56 16.66,-11.65 66.7,-48.99 113.4,-126.05 122.9,-208.98 1.97,-17.24 2.69,-33.93 2.14,-50.06 -1.85,-54.55 -17.84,-107.44 -47.51,-153.18 -26.97,-41.59 -61.95,-75.34 -104.94,-101.24 -34.41,-20.74 -71.58,-34.24 -111.51,-40.51 -35.85,-5.63 -72.13,-4.34 -108.84,3.87 -20,4.47 -38.62,10.61 -55.86,18.41 -22.27,10.07 -43.59,22.65 -63.98,37.73 -31.89,23.59 -58.05,54.11 -79.08,87.92 -0.29,0.46 -0.87,0.65 -1.37,0.44 -2.74,-1.13 -5.51,-2.6 -8.49,-2.82 -6.78,-0.48 -11.5,4.46 -12.28,10.95 -1.15,9.63 -0.39,17.82 2.29,24.57 1.03,2.58 -0.34,4.28 -1.24,6.51 -22.11,54.87 -28.28,111.74 -18.53,170.63 8.49,51.28 29,97.44 61.53,138.49 18.93,23.9 41.8,45.62 67.35,62.49 0.57,0.37 1.29,0.43 1.91,0.15 6.58,-3.03 12.83,-6.78 18.75,-11.25 0.39,-0.29 0.34,-0.42 -0.15,-0.39 -5.44,0.38 -11.14,0.28 -17.11,-0.29 -2.08,-0.21 -2.18,-0.76 -0.29,-1.65 5.33,-2.53 10.75,-5.57 16.24,-9.13 4.62,-2.99 9.77,-5.67 14.53,-8.45 1.51,-0.89 1.41,-1.15 -0.31,-0.79 -8.52,1.79 -17.76,2.68 -27.73,2.66 -2.64,0 -2.82,-0.67 -0.55,-2.01 l 33.06,-19.48 c 0.31,-0.19 0.29,-0.32 -0.06,-0.4 -3.86,-0.88 -7.62,-2.29 -11.28,-4.24 -1.03,-0.55 -0.96,-0.85 0.21,-0.9 9.41,-0.38 18.96,-3.34 28.65,-8.89 1.73,-0.99 3.31,-2.1 4.74,-3.33 0.59,-0.51 0.49,-0.78 -0.28,-0.82 -18.38,-0.89 -37.76,-1.79 -56.43,-4.12 -1.39,-0.17 -1.45,-0.56 -0.19,-1.16 10.89,-5.24 21.7,-10.24 32.43,-15 17.95,-7.95 36.17,-18.01 50.45,-32.19 0.46,-0.45 0.37,-0.67 -0.28,-0.65 -11.67,0.29 -22.73,-1.49 -33.18,-5.36 -1.71,-0.63 -1.66,-1.09 0.13,-1.38 9.06,-1.49 17.98,-3.56 26.76,-6.22 11.02,-3.35 21.61,-8.64 31.76,-15.88 1.15,-0.83 1.05,-1.05 -0.32,-0.67 -7.6,2.12 -14.94,3.86 -22.69,4.74 -5.3,0.6 -10.59,1.27 -15.88,2.02 -0.23,0.03 -0.43,-0.13 -0.44,-0.36 -0.02,-0.22 0.13,-0.52 0.3,-0.65 1.58,-1.11 3.12,-2.41 4.63,-3.88 6.51,-6.37 12.83,-12.92 18.94,-19.65 0.42,-0.46 0.32,-0.64 -0.29,-0.54 -12.66,2.01 -25.44,1.85 -38.35,-0.48 -0.14,-0.02 -0.26,-0.14 -0.28,-0.28 -0.03,-0.15 0.03,-0.24 0.18,-0.27 9.22,-1.53 17.28,-5.64 24.19,-12.31 0.09,-0.08 0.06,-0.23 -0.06,-0.27 -22.38,-6.86 -43.99,-17.06 -64.84,-30.61 -28.9,-18.77 -53.93,-41.86 -75.1,-69.27 -18.49,-23.94 -33.97,-50.46 -40.11,-79.14 -2.05,-9.55 -3.04,-19.47 -2.98,-29.77 0.02,-2.65 0.49,-5.9 2.87,-7.48 0.31,-0.2 0.64,-0.27 1,-0.21 1.72,0.31 3.06,0.79 4.01,1.46 3.62,2.55 7.45,5.22 11.49,8 16.03,11.05 33.28,19.63 51.77,25.74 14.1,4.65 30.03,7.73 45.33,7.34 0.24,-0.01 0.36,-0.28 0.22,-0.47 -4.33,-5.72 -8.27,-11.68 -11.83,-17.89 -14.84,-25.88 -25.27,-53.33 -29.8,-82.87 -0.64,-4.18 -1.23,-9.1 -0.43,-13.2 0.96,-4.87 7.25,-5.98 10.66,-2.8 24.33,22.61 52.14,39.75 83.45,51.44 21.19,7.91 43.33,13.7 66.42,17.39 0.59,0.09 0.67,-0.07 0.25,-0.49 l -10.49,-10.53 c -0.47,-0.47 -0.38,-0.66 0.28,-0.55 1.05,0.17 2.07,0.41 3.06,0.74 11.45,3.8 22.98,8.34 34.79,11.7 10.53,3 21.17,6.05 31.92,9.14 0.65,0.19 0.81,-0.02 0.5,-0.61 -0.56,-1.05 -1.22,-2.15 -1.99,-3.31 -5.91,-8.95 -12.82,-17.42 -20.73,-25.39 -1.02,-1.03 -0.85,-1.31 0.52,-0.82 9.68,3.46 19.45,7.59 29.3,12.38 21.75,10.59 43.77,22.59 63.16,37.01 0.15,0.12 0.37,0.03 0.41,-0.16 1.24,-6.42 3.62,-12.3 4.93,-18.84 0.06,-0.29 0.41,-0.4 0.62,-0.2 0.12,0.11 0.21,0.24 0.28,0.39 4.09,9.89 6.63,19.47 7.62,28.72 0.09,0.85 0.4,0.94 0.91,0.25 3.52,-4.72 4.85,-10.43 5.64,-16.24 0.05,-0.4 0.5,-0.6 0.83,-0.39 0.19,0.13 0.39,0.41 0.6,0.84 4.66,9.54 5.61,19.03 6.15,29.54 0.04,0.73 0.23,1.42 0.58,2.06 0.75,1.37 1.16,1.27 1.22,-0.29 0.1,-2.76 -0.02,-5.61 -0.35,-8.56 -0.06,-0.52 0.49,-0.9 0.95,-0.66 5.62,2.85 8.38,7.6 11.8,12.54 0.96,1.39 2.32,2.88 3.72,3.79 12.17,7.94 24.46,16.19 36.88,24.76 1.09,0.76 1.94,1.81 2.46,3.03 3.62,8.66 6.33,16.31 13.94,21.94 11.09,8.21 22.17,15.72 33.26,22.53 0.85,0.52 1.42,1.28 1.72,2.27 2.21,7.23 4.5,14.18 6.89,20.84 1.15,3.21 -0.11,6.17 -0.29,9.43 -0.69,12.35 -1.61,25.63 -2.76,39.83 -0.05,0.67 -0.33,1.3 -0.78,1.79 -4.4,4.75 -8.4,9.93 -12.01,15.55 -8.16,12.73 -16.09,25.29 -23.8,37.68 -1.89,3.05 -3.96,5.91 -6.2,8.6 -0.67,0.81 -1.61,1.36 -2.64,1.53 -9.71,1.66 -20.1,1.41 -30.09,1.33 -6.68,-0.05 -12.3,0.37 -16.86,1.26 -15.08,2.93 -32.35,9.91 -42.97,21.13 -5.59,5.9 -6.58,12.57 -2.98,20.01 2.99,6.17 6.56,11.6 10.71,16.29 0.78,0.88 0.61,1.15 -0.52,0.82 -4.58,-1.38 -9.26,-3.95 -13.38,-6.46 -0.44,-0.27 -0.53,-0.18 -0.28,0.27 4.49,7.88 7.94,13.54 10.34,16.97 3.87,5.54 8.26,11.05 13.17,16.52 0.58,0.65 0.44,0.92 -0.43,0.81 -11.54,-1.41 -21.7,-6.05 -30.48,-13.93 -14.04,-12.61 -26.1,-26.52 -37.88,-41.3 -1.29,-1.61 -2.02,-1.39 -2.21,0.66 -0.13,1.48 0.08,3.43 0.63,5.85 2.15,9.56 5.74,18.5 10.77,26.81 1.62,2.67 3.69,4.97 5.29,7.67 0.05,0.1 0.04,0.18 -0.04,0.25 -0.03,0.03 -0.06,0.04 -0.09,0.05 -0.13,0.03 -0.26,0 -0.37,-0.11 -17.85,-17.03 -33.7,-35.33 -46.34,-56.33 -1.55,-2.57 -2.57,-5.33 -4.16,-7.94 -0.44,-0.72 -0.58,-0.67 -0.41,0.16 2.61,13.1 6.5,25.81 11.67,38.14 3.47,8.26 7.78,16.05 13,23.31 0.66,0.93 0.55,1.03 -0.32,0.3 -13.14,-10.83 -24.25,-23.18 -33.32,-37.03 -5.99,-9.16 -10.31,-17.91 -12.95,-26.25 -0.92,-2.91 -1.79,-5.91 -2.61,-8.98 -0.44,-1.64 -0.63,-1.61 -0.56,0.09 0.75,20.35 5.37,40.07 13.86,59.16 0.58,1.31 0.33,1.5 -0.76,0.56 -11.65,-10.07 -20.94,-21.65 -27.89,-34.74 -0.83,-1.57 -1.17,-1.47 -1.02,0.3 2.09,24.61 10.56,45.84 25.43,63.68 3.03,3.64 5.81,6.36 8.34,8.16 2.69,1.92 5.44,4.04 8.24,6.36 0.09,0.07 0.17,0.07 0.25,-0.02 l 0.01,-0.01 c 0.11,-0.11 0.11,-0.23 0,-0.34 -3.85,-3.98 -7.15,-7.55 -9.88,-10.72 -8.45,-9.81 -15.05,-20.89 -19.78,-33.24 -1.21,-3.14 -2.06,-6.14 -2.57,-8.99 -0.03,-0.2 0.05,-0.31 0.25,-0.33 l 0.33,-0.02 c 0.34,-0.03 0.66,0.19 0.77,0.52 0.69,2.26 1.6,4.4 2.73,6.41 4.39,7.84 8.66,15.33 14.16,22.66 7.89,10.51 16.01,19.64 24.36,27.41 6.1,5.67 13.92,11.68 23.45,18.03 0.53,0.35 0.51,0.41 -0.08,0.16 z m -165.66,-402.38 c -6.28,-2.81 -12.3,-6.94 -18.21,-10.5 -3.24,-1.95 -6.06,-4.39 -9.1,-6.6 -2.2,-1.6 -4.39,-3.35 -6.57,-5.25 -8.13,-7.08 -17.2,-14.61 -27.21,-22.58 -0.43,-0.34 -0.54,-0.26 -0.35,0.25 0.93,2.43 2.05,4.81 3.34,7.15 5.11,9.21 11.41,17.44 18.9,24.67 5.99,5.79 11.89,11.34 17.69,16.66 1.3,1.19 2.41,2.47 3.33,3.82 0.26,0.39 0.03,0.92 -0.43,0.98 -0.23,0.03 -0.45,-0.03 -0.66,-0.18 -2.35,-1.73 -4.85,-3.59 -7.5,-5.58 -3.91,-2.93 -8.93,-7.59 -15.05,-13.97 -0.1,-0.11 -0.21,-0.12 -0.34,-0.03 l -0.21,0.17 c -0.03,0.02 -0.04,0.05 -0.02,0.09 2.02,3.29 4.32,6.44 6.91,9.45 6.15,7.16 13.74,13.78 21.16,19.48 12.65,9.73 26.07,16.55 40.26,20.45 2.68,0.74 5.52,1.33 8.51,1.77 0.06,0.01 0.1,-0.01 0.12,-0.08 l 0.08,-0.33 c 0.05,-0.19 -0.02,-0.32 -0.21,-0.39 -7.93,-2.78 -15.33,-6.21 -22.22,-10.29 -6.31,-3.74 -12.54,-7 -17.67,-12.49 -1.29,-1.38 -1.06,-1.72 0.69,-1.01 1.02,0.41 2.01,0.95 2.96,1.62 10.67,7.48 21.82,13.1 33.46,16.85 5.03,1.63 10.24,2.5 15.45,3.56 0.73,0.15 1.44,0.13 2.13,-0.06 0.35,-0.09 0.35,-0.19 0,-0.29 -11.59,-3.25 -22.74,-7.71 -33.43,-13.39 -4.69,-2.49 -8.87,-5.59 -13.22,-8.49 -3.17,-2.11 -6.22,-4.53 -9.15,-7.26 -4.08,-3.79 -8.23,-7.62 -12.46,-11.48 -0.57,-0.51 -0.77,-1.15 -0.61,-1.91 0.08,-0.39 0.28,-0.48 0.61,-0.27 14.2,9.03 28.57,16.87 44.59,21.56 0.45,0.13 0.9,0.17 1.36,0.12 0.7,-0.07 0.74,-0.28 0.13,-0.63 -2.67,-1.52 -5.37,-2.83 -7.73,-4.74 -5.57,-4.49 -11.25,-9.13 -17.06,-13.92 -4.1,-3.39 -8.63,-5.79 -13,-8.67 -5.43,-3.58 -11.18,-6.51 -16.37,-10.42 -0.93,-0.71 -1.89,-1.39 -2.88,-2.04 -2.16,-1.43 -2.34,-1.21 -0.54,0.66 1.61,1.67 3.49,3.28 5.62,4.83 5.49,3.99 12.04,8.51 19.65,13.56 2.18,1.45 4.02,3.05 5.52,4.78 0.45,0.53 0.36,0.65 -0.27,0.37 z m 33.8988,7.7586 c 0.1412,-0.3386 -0.0188,-0.7186 -0.3587,-0.8617 l -9.9296,-4.0927 c -0.3405,-0.1342 -0.7205,0.0258 -0.8617,0.3587 l -0.008,0.0185 c -0.1412,0.3386 0.0188,0.7186 0.3587,0.8617 l 9.9296,4.0927 c 0.3405,0.1342 0.7205,-0.0258 0.8617,-0.3587 z m 108.3412,103.6614 c 1.96,2.97 3.78,6.01 5.45,9.12 3.51,6.54 3.61,13.88 2.31,21.45 -0.09,0.54 0.1,0.67 0.56,0.38 3.99,-2.47 7.53,-4.86 10.64,-7.17 1.39,-1.02 2.87,-2.69 2.59,-4.57 -0.64,-4.4 -3.36,-9.16 -6.01,-12.49 -5.05,-6.34 -11.44,-12.32 -19.15,-17.94 -0.24,-0.17 -0.28,-0.38 -0.13,-0.63 l 0.13,-0.21 c 0.07,-0.12 0.23,-0.17 0.35,-0.1 7.35,3.91 13.66,9.07 18.93,15.5 0.07,0.08 0.15,0.09 0.24,0.04 v -0.01 c 0.09,-0.06 0.11,-0.14 0.06,-0.24 -1.73,-3.15 -2.69,-6.86 -4.84,-9.74 -1.69,-2.27 -1.47,-2.48 0.68,-0.65 1.37,1.17 2.73,2.66 4.1,4.47 1.13,1.49 1.96,3.17 2.5,5.03 0.59,2.06 1.31,4.02 2.16,5.88 0.35,0.79 0.52,0.75 0.5,-0.12 l -0.14,-5.95 c -0.01,-0.34 0.13,-0.42 0.42,-0.23 1.8,1.18 2.8,2.82 2.99,4.91 0.39,4.23 0.35,8.39 -0.12,12.5 -0.58,5.19 -4.59,7.46 -8.31,10.36 -0.51,0.39 -0.45,0.53 0.18,0.42 0.94,-0.17 1.77,-0.62 2.74,-0.72 2.74,-0.29 5.59,-0.58 8.55,-0.89 1.24,-0.13 1.4,0.22 0.47,1.05 -5.05,4.49 -10.33,8.27 -15.82,11.35 -8.14,4.56 -16.32,8.4 -24.53,11.52 -0.93,0.35 -0.91,0.48 0.08,0.38 1.97,-0.2 4.03,-0.54 6.17,-1.02 7.96,-1.78 15.85,-3.33 23.68,-4.66 0.87,-0.15 0.92,0.01 0.17,0.47 -0.96,0.59 -1.93,1.15 -2.91,1.68 -3.48,1.89 -7.04,4.38 -10.68,7.47 -0.85,0.72 -1.66,1.28 -2.44,1.68 -1.45,0.74 -1.38,0.97 0.23,0.69 3.11,-0.55 6.18,-1.07 9.19,-1.57 7.11,-1.19 14.29,-1.38 21.56,-0.58 1.18,0.13 2.09,0.49 2.72,1.1 0.57,0.54 0.21,1.51 -0.58,1.54 l -3.93,0.16 c -0.58,0.03 -0.62,0.19 -0.12,0.48 1.55,0.93 4.74,0.65 6.58,0.66 1.2,0.01 2.59,0.44 3.63,0.9 2.03,0.88 1.94,1.36 -0.27,1.44 -6.08,0.22 -10.47,1.02 -15.01,5.71 -2.88,2.97 -5.66,5.91 -8.34,8.81 -0.67,0.73 -0.56,0.87 0.32,0.43 2.03,-1.01 4.09,-1.91 6.2,-2.7 3.31,-1.25 7.01,-2.08 11.1,-2.48 0.08,-0.01 0.13,0.03 0.15,0.11 l 0.09,0.41 c 0.03,0.15 -0.03,0.25 -0.18,0.28 -1.55,0.34 -2.99,0.92 -4.32,1.73 -5.9,3.61 -11.19,8 -15.8,12.98 -3.11,3.36 -6.32,6.48 -9.16,10.07 -1.36,1.72 -2.93,3.21 -4.72,4.47 -0.09,0.06 -0.13,0.14 -0.13,0.25 -0.01,0.09 0.04,0.16 0.15,0.22 0.06,0.03 0.12,0.03 0.18,0 8.25,-4.33 16.64,-8.03 25.17,-11.12 3.27,-1.19 3.43,-0.86 0.48,0.99 -2.63,1.65 -5.24,3.62 -7.81,5.92 -9.39,8.39 -19.41,18.29 -30.06,29.71 -0.96,1.03 -2,2.06 -3.12,3.09 -0.33,0.31 -0.29,0.37 0.13,0.2 8.21,-3.45 16.25,-7.09 24.12,-10.92 4.92,-2.39 9.66,-5.66 14.33,-8.83 3.65,-2.47 4.05,-2.03 1.18,1.32 -11.83,13.81 -21.13,27.74 -29.82,42.75 -0.23,0.41 -0.12,0.56 0.34,0.47 13.32,-2.7 26.34,-7.11 39.05,-13.22 4.53,-2.17 9.65,-4.76 15.37,-7.76 4.91,-2.57 9.45,-5.56 13.89,-8.53 0.02,-0.02 0.05,-0.01 0.07,0.01 0.02,0.02 0.02,0.05 0,0.07 l -30.05,31.07 c -0.79,0.82 -0.7,0.92 0.26,0.31 0.59,-0.37 1.18,-0.69 1.77,-0.94 23.38,-9.97 47.45,-13.41 72.36,-7.41 0.17,0.04 0.29,-0.02 0.34,-0.19 l 0.08,-0.24 c 0.01,-0.04 0,-0.07 -0.03,-0.09 -4.55,-1.99 -8.93,-3.88 -13.13,-5.68 -2.41,-1.03 -5.2,-1.95 -8.37,-2.77 -0.55,-0.14 -1.09,-0.41 -1.62,-0.8 -0.92,-0.68 -0.81,-0.97 0.33,-0.86 13.15,1.23 26.39,3.36 38.31,8.78 6.77,3.08 13.68,5.93 20.71,8.56 0.89,0.33 1.84,0.43 2.78,0.3 4.57,-0.67 9.11,-1.45 13.61,-2.36 1.57,-0.32 2.78,-1.14 3.62,-2.47 7.67,-12.11 16.1,-24.72 25.29,-37.82 0.64,-0.91 0.41,-1.43 -0.7,-1.55 -2.53,-0.27 -5.4,-0.45 -8.59,-0.56 -1.16,-0.04 -2.03,0.44 -2.88,1.17 -0.42,0.36 -0.61,0.26 -0.58,-0.29 0.06,-0.87 0.3,-1.74 0.72,-2.63 0.23,-0.49 0.09,-0.81 -0.44,-0.94 -17.29,-4.46 -34.27,-7.74 -50.96,-9.84 -8.2,-1.03 -16.83,-1.36 -25.34,-1.78 -9.46,-0.47 -18.78,-3.66 -28.1,-0.94 -2.55,0.74 -5.1,1.58 -7.66,2.51 -0.11,0.04 -0.19,0.01 -0.24,-0.09 v -0.01 c -0.07,-0.14 -0.03,-0.25 0.1,-0.32 10.67,-6.32 21.67,-12.03 32.99,-17.13 3.21,-1.44 7.99,-3.04 14.32,-4.79 0.1,-0.03 0.19,0 0.27,0.07 0.03,0.03 0.05,0.06 0.06,0.1 0.05,0.2 -0.01,0.36 -0.18,0.48 -4.16,3.09 -7.2,6.98 -9.13,11.68 -0.27,0.66 0.05,1.42 0.72,1.68 0.54,0.21 1.06,0.36 1.55,0.45 7.11,1.27 14.5,2.48 22.16,3.64 13.02,1.97 25.73,4.51 38.73,6.64 9.64,1.57 18.98,1.07 28.01,-1.52 2.65,-0.75 7.83,-3.13 8.18,-6.43 0.85,-8.15 1.47,-16.37 1.86,-24.67 0.02,-0.44 -0.5,-0.68 -0.82,-0.38 -0.25,0.23 -0.56,0.23 -0.95,0.01 -0.26,-0.15 -0.39,-0.45 -0.34,-0.74 0.8,-4.33 1.83,-8.38 3.1,-12.15 0.29,-0.86 0.29,-1.79 0.02,-2.65 -1.83,-5.77 -3.55,-11.49 -5.18,-17.18 -0.84,-2.94 -2.02,-4.79 -5.14,-5.72 -2.31,-0.69 -4.35,-1.55 -6.1,-2.58 -7.63,-4.46 -16.35,-10.45 -26.14,-17.96 -2.27,-1.74 -4.07,-3.69 -5.41,-5.85 -2.79,-4.49 -5.41,-9.18 -7.86,-14.06 -1.79,-3.56 -3.6,-5.93 -6.93,-8.14 -11.23,-7.43 -22.88,-14.72 -34.95,-21.85 -8.66,-5.13 -16,-11.24 -23.78,-17.22 -1.2,-0.91 -1.31,-0.79 -0.34,0.36 l 3.89,4.63 c 0.75,0.89 0.58,1.12 -0.51,0.71 -0.43,-0.16 -1.01,-0.48 -1.74,-0.96 -4.88,-3.19 -11.05,-7.61 -18.5,-13.24 -8.45,-6.38 -13.84,-10.34 -16.18,-11.89 -10.73,-7.08 -21.09,-13.13 -31.08,-18.14 -1.57,-0.79 -3.16,-1.69 -4.76,-2.72 -1.25,-0.79 -1.44,-0.59 -0.57,0.61 6.11,8.46 12.22,16.77 19.21,23.59 2.49,2.43 4.37,4.1 5.64,5.02 5.37,3.89 8.66,6.41 9.89,7.58 5.13,4.87 10.1,9.59 14.91,14.14 1.07,1.02 0.94,1.22 -0.4,0.59 -7.14,-3.33 -13.23,-6.18 -22.08,-9.38 -8.55,-3.09 -18.53,-5.8 -27.65,-8.84 -1.19,-0.39 -1.23,-0.3 -0.12,0.27 6.13,3.19 12.09,6.63 17.86,10.31 2.99,1.91 7.6,5.58 13.83,11.01 0.11,0.1 0.13,0.21 0.04,0.33 l -0.15,0.2 c -0.03,0.03 -0.06,0.04 -0.09,0.02 -6.11,-3.94 -11.82,-7.15 -17.14,-9.62 -8.89,-4.13 -17.42,-7.84 -25.58,-11.14 -7.28,-2.94 -17.56,-5.78 -30.83,-8.53 -8.09,-1.67 -16.92,-3.24 -26.49,-4.69 -0.33,-0.05 -0.36,0.02 -0.08,0.2 9.78,6.43 20.14,12.61 31.07,18.53 19.2,10.39 40.36,16.37 57.55,30.04 1.72,1.37 1.58,1.59 -0.41,0.66 -3.89,-1.81 -7.69,-3.43 -11.79,-4.74 -17.37,-5.54 -35.48,-9.44 -54.35,-11.7 -0.01,0 -0.01,0 -0.01,0.01 -0.04,0.09 -0.04,0.09 0.01,-0.02 0.01,-0.01 0.02,-0.02 0.04,-0.02 7.34,2.43 14.23,5.22 20.67,8.36 12.34,6.02 23.34,14.75 33.01,26.19 1.35,1.59 2.52,3.29 3.49,5.1 0.69,1.27 0.57,1.35 -0.34,0.22 -5.9,-7.27 -13.85,-12.8 -22.69,-18.8 -9.53,-6.47 -20.36,-11.52 -32.5,-15.13 -9.15,-2.72 -15.99,-4.51 -20.52,-5.37 -6.3,-1.19 -13.24,-1.99 -20.82,-2.4 -1.05,-0.05 -1.09,0.12 -0.12,0.52 5.41,2.21 9.77,5.62 14.74,8.68 1.57,0.97 3.32,1.5 5.23,1.6 5.52,0.28 17.84,0.69 21.19,6.14 0.57,0.93 0.33,1.26 -0.73,0.99 l -21.46,-5.59 c -1.34,-0.35 -1.6,0.03 -0.79,1.15 4.11,5.64 9.29,8.56 16.04,10.99 5.75,2.07 12.05,5.28 18.9,9.61 0.07,0.04 0.08,0.1 0.04,0.17 v 0.01 c -0.04,0.07 -0.09,0.08 -0.16,0.05 -6.7,-3.21 -13.52,-6.11 -20.47,-8.69 -3.5,-1.3 -7.18,-3.52 -9.67,-6.18 -4.32,-4.59 -9.82,-9.01 -16.49,-13.24 -5.9,-3.75 -11.63,-6.04 -17.19,-6.88 -2.98,-0.45 -8.06,-0.75 -15.24,-0.9 -5.04,-0.11 -10.05,-0.15 -15.04,-0.12 -0.6,0 -1.19,0.08 -1.78,0.23 -0.25,0.06 -0.33,0.38 -0.13,0.55 7.46,6.12 11.03,13.63 14.29,22.46 0.63,1.71 1.8,2.75 3.53,3.12 10.63,2.31 21.09,4.86 31.39,7.64 2.65,0.71 5.36,1.56 8.14,2.53 6.61,2.3 13.47,4.41 19.77,7.15 14.13,6.13 27.24,13.89 39.31,23.3 0.69,0.53 1.06,0.36 1.11,-0.51 0.39,-6.8 -0.63,-13.29 -3.08,-19.46 -0.27,-0.69 -0.21,-0.72 0.2,-0.1 z m -200.9,0.35 c -1.77,1.37 -3.83,2.38 -6.19,3.05 -1.08,0.31 -1.84,1.01 -2.76,1.57 -0.62,0.37 -0.68,0.3 -0.18,-0.22 0.49,-0.51 1,-1 1.54,-1.46 0.64,-0.54 0.72,-1.48 0.18,-2.12 -4.8,-5.7 -11.06,-9.88 -16.75,-14.66 -3.44,-2.88 -5.84,-6.15 -8.55,-9.58 -0.8,-1.01 -0.92,-0.94 -0.36,0.23 1.67,3.5 3.31,7.14 4.9,10.93 0.95,2.27 2.02,4.3 3.19,6.11 2.75,4.24 5.59,8.53 8.5,12.86 0.44,0.66 1.04,1.08 1.58,1.64 0.23,0.25 0.27,0.54 0.12,0.85 -0.15,0.29 -0.39,0.44 -0.72,0.45 -0.37,0.01 -0.71,-0.12 -1.02,-0.39 -3.62,-3.09 -6.38,-7.29 -9.42,-10.95 -4.24,-5.12 -7.78,-10.23 -11.7,-15.36 -0.03,-0.04 -0.06,-0.06 -0.11,-0.05 -0.11,0.01 -0.18,0.09 -0.19,0.24 -0.01,0.09 0,0.17 0.03,0.26 4.51,10.67 11.19,19.13 18.35,28.19 0.21,0.26 0.33,0.58 0.35,0.91 0.05,0.77 -0.11,1.33 -0.49,1.69 -0.75,0.71 -1.46,0.67 -2.13,-0.12 -18.33,-21.36 -32.17,-44.99 -41.53,-70.88 -0.83,-2.28 -1.18,-4.76 -1.06,-7.45 0.02,-0.45 0.52,-0.71 0.9,-0.47 20.44,12.82 43.87,20.45 67.04,26.45 2.48,0.64 3,-0.1 1.56,-2.22 l -4.27,-6.3 c -1.35,-1.98 -3.45,-3.33 -5.82,-3.73 -3.33,-0.57 -7.03,-1.4 -11.11,-2.49 -0.41,-0.11 -0.54,0.04 -0.4,0.44 l 1.05,2.94 c 0.23,0.65 0.09,0.74 -0.41,0.27 -0.95,-0.9 -1.68,-1.97 -2.17,-3.22 -0.11,-0.28 -0.29,-0.52 -0.52,-0.71 -0.97,-0.81 -2.07,-1.43 -3.32,-1.86 -17.83,-6.12 -34.42,-14.25 -49.79,-24.4 -3.76,-2.48 -7.34,-0.06 -7.09,4.18 0.15,2.53 0.55,5.11 1.19,7.74 7.95,32.9 24.86,61.39 47.04,87.89 20.75,24.78 45.86,45.69 75.35,62.73 25.86,14.95 55.79,25.86 85.3,27.55 14.99,0.85 29.81,-1.24 44.48,-6.27 16.88,-5.78 29.11,-15.81 39.43,-29.96 0.95,-1.31 0.63,-1.93 -0.98,-1.86 -0.18,0.01 -0.34,0.06 -0.49,0.17 -7.75,5.59 -16.09,10.76 -25.04,15.49 -2.81,1.49 -3.06,1.15 -0.73,-1.03 4.11,-3.86 8.39,-8.17 12.85,-12.93 0.26,-0.28 0.36,-0.54 0.31,-0.79 -0.06,-0.29 -0.33,-0.48 -0.62,-0.44 -3.83,0.52 -7.34,1.5 -10.53,2.93 -22.09,9.95 -47.23,15.69 -71.39,13.89 -19.53,-1.45 -38.11,-5.83 -55.74,-13.14 -9.52,-3.95 -17.87,-8.05 -25.06,-12.32 -21.34,-12.68 -40.07,-28.46 -56.2,-47.33 -0.69,-0.8 -0.54,-1.41 0.43,-1.83 1.56,-0.67 3,-1.35 4.38,-2.37 6.11,-4.57 11.62,-7.75 16.53,-9.56 8.95,-3.3 17.9,-5.01 26.85,-5.14 1.56,-0.02 1.57,-0.19 0.04,-0.5 -8.25,-1.71 -16.55,-1.67 -24.89,0.12 -0.35,0.07 -0.67,0 -0.96,-0.22 -3.23,-2.45 -6.62,-4.49 -10.18,-6.14 -0.54,-0.25 -0.69,-0.11 -0.45,0.44 1.08,2.4 4.71,7.55 7.68,7.72 0.53,0.03 0.59,0.21 0.17,0.54 z m 5.05,-47.12 c 1.69,3.22 3.51,6.41 5.45,9.56 0.51,0.83 1.22,1.33 2.13,1.5 10.97,2.06 21.78,3.75 32.44,5.06 0.39,0.05 0.69,-0.34 0.55,-0.71 -1.91,-4.86 -11.15,-14.94 -16.68,-15.07 -8.14,-0.19 -16,-0.46 -23.59,-0.81 -0.37,-0.01 -0.47,0.14 -0.3,0.47 z m 92.43,24.35 c -2.9,-7.49 -8.94,-14.95 -14.62,-19.79 -3.51,-2.98 -6.94,-4.42 -11.88,-4.42 -10.22,-0.01 -20.45,0.06 -30.7,0.19 -1.09,0.01 -1.24,0.4 -0.47,1.16 4.3,4.28 7.8,8.27 10.55,14.09 0.38,0.8 1.11,1.36 1.97,1.5 l 44.81,7.69 c 0.24,0.04 0.43,-0.19 0.34,-0.42 z m -72.47,45.6 c -1.53,1.88 -3.37,2.18 -5.5,0.89 -5.87,-3.53 -11.5,-9.27 -17.59,-13.66 -1.17,-0.84 -2.09,-0.7 -3.35,-0.29 -4.69,1.54 -8.71,3.37 -12.06,5.48 -0.67,0.43 -0.77,0.95 -0.29,1.58 6.2,8.12 13.19,15.4 20.96,21.84 0.23,0.2 0.57,0.2 0.8,0 2.79,-2.4 5.72,-4.87 8.8,-7.41 3.12,-2.57 6.43,-4.09 9.62,-6.3 2.36,-1.63 4.84,-3.07 7.45,-4.32 18.31,-8.8 37.84,-11.06 58.57,-6.78 6.26,1.29 13.43,3.87 18.97,6.89 5.66,3.09 11.81,8.18 18.44,15.29 0.14,0.16 0.4,0.11 0.47,-0.09 0.13,-0.34 0.1,-0.67 -0.09,-0.98 -3.96,-6.49 -8.9,-11.77 -14.81,-15.84 -2.57,-1.77 -5.9,-3.5 -9.99,-5.19 -17.57,-7.27 -36.91,-6.99 -56.53,-2.98 -0.38,0.08 -0.78,-0.04 -1.05,-0.33 -2.07,-2.19 -4.26,-4.21 -6.58,-6.04 -0.04,-0.03 -0.09,-0.05 -0.14,-0.04 -0.11,0 -0.12,0.04 -0.04,0.11 2.11,1.85 3.88,3.94 5.31,6.26 0.28,0.45 0.09,1.05 -0.4,1.26 -2.15,0.9 -4.48,0.64 -6.31,-0.8 -2.42,-1.89 -4.91,-3.73 -7.47,-5.52 -2.2,-1.55 -2.51,-1.23 -0.92,0.94 1.63,2.23 3.68,4.4 6.14,6.53 0.82,0.71 0.72,1.25 -0.3,1.61 l -2.49,0.87 c -0.74,0.26 -1.56,0.15 -2.21,-0.3 -2.15,-1.52 -4.28,-3.11 -6.41,-4.78 -5.18,-4.04 -11.58,-3.8 -17.7,-2.01 -0.46,0.13 -0.51,0.36 -0.16,0.69 4.23,3.96 8.59,7.8 13.06,11.53 1.07,0.89 2.26,1.35 3.55,1.36 0.27,0 0.42,0.32 0.25,0.53 z m 36.67,-1.25 c 1.7,-0.41 3.38,-0.65 5.03,-0.71 14.74,-0.56 28.44,1.85 41.09,7.22 1.76,0.75 3.25,1.84 4.97,2.48 1.57,0.59 1.72,0.33 0.46,-0.77 -1.98,-1.72 -4.24,-3.19 -6.78,-4.41 -11.61,-5.57 -23.93,-6.6 -37.41,-6.12 -2.92,0.11 -5.56,0.47 -7.93,1.09 -2.74,0.72 -5.63,1.41 -8.66,2.08 -0.44,0.09 -0.64,0.61 -0.37,0.98 2.97,3.99 6.11,7.61 9.4,10.86 10.53,10.39 20.35,18.64 29.48,24.75 15.52,10.4 37.64,18.61 56.64,14.24 0.23,-0.05 0.46,-0.13 0.68,-0.24 0.52,-0.27 0.49,-0.45 -0.09,-0.56 -14.54,-2.59 -27.18,-8.8 -40.14,-16.54 -13.19,-7.88 -25.39,-16.66 -36.61,-26.33 -2.55,-2.19 -5.1,-4.34 -7.63,-6.45 -0.29,-0.23 -0.6,-0.41 -0.95,-0.54 l -1.22,-0.43 c -0.67,-0.23 -0.66,-0.43 0.04,-0.6 z m 3.01,34.44 c 1.33,1.13 1.22,1.28 -0.31,0.45 -13.13,-7.14 -25.64,-15.98 -37.53,-26.51 -1.08,-0.96 -1.98,-0.48 -3.03,0.1 -5.12,2.83 -9.99,5.89 -14.62,9.19 -0.43,0.31 -0.47,0.93 -0.09,1.3 2.14,2.09 4.11,3.72 5.92,4.89 3.83,2.49 7.43,5.58 11.26,7.83 3.97,2.33 8.04,4.77 12.2,7.34 0.23,0.14 0.53,-0.05 0.5,-0.32 l -0.03,-0.31 c -0.06,-0.58 -0.35,-1.11 -0.8,-1.47 -5.71,-4.55 -11.23,-8.35 -16.57,-11.41 -2.64,-1.51 -4.92,-3.65 -6.84,-6.4 -0.13,-0.19 -0.04,-0.44 0.17,-0.52 l 0.3,-0.11 c 0.53,-0.19 1.01,-0.09 1.43,0.28 2.51,2.23 4.69,4.03 6.52,5.4 5.51,4.08 11.16,8.28 16.96,12.59 0.32,0.23 0.57,0.57 0.69,0.95 l 0.69,2.15 c 0.12,0.38 0.39,0.7 0.75,0.89 12.03,6.12 25.44,11.69 39.25,14.22 13.99,2.55 28.69,3.52 44.08,2.9 1.45,-0.06 1.47,-0.27 0.07,-0.62 -2.3,-0.58 -4.73,-0.69 -7.04,-1.44 -5.95,-1.9 -11.73,-4.18 -17.36,-6.84 -0.17,-0.08 -0.31,-0.22 -0.37,-0.4 -0.07,-0.17 -0.17,-0.3 -0.32,-0.39 -5.06,-3.04 -9.59,-6.08 -13.59,-9.12 -9.27,-7.04 -18.86,-15.22 -28.79,-24.54 -4.26,-4 -8.19,-8.4 -12.51,-12.45 -0.7,-0.65 -1.7,-0.83 -2.58,-0.48 l -13.18,5.34 c -0.55,0.23 -0.58,0.5 -0.07,0.82 1.61,1.01 3.11,2.02 4.57,3.28 8.81,7.63 17.88,14.59 27.21,20.88 0.99,0.66 2.13,1.72 3.06,2.53 z m 72.4,238.93 c -10.85,-13.85 -18.49,-29.39 -22.91,-46.61 -0.28,-1.08 -0.49,-1.07 -0.64,0.04 -2.57,19.26 -1.31,38.43 3.79,57.52 3.09,11.59 7.56,21.88 13.39,30.86 3.04,4.69 6.63,8.43 10.42,12.24 0.72,0.72 0.83,0.64 0.34,-0.25 -3.21,-5.75 -6.27,-11.51 -9.18,-17.28 -3.86,-7.67 -6.5,-14.74 -7.92,-21.23 -0.12,-0.54 0.44,-0.97 0.93,-0.73 0.79,0.38 1.47,0.96 2.02,1.74 3.49,4.89 6.62,9.57 9.4,14.04 3.99,6.42 7.17,11.07 9.52,13.94 4.03,4.91 7.84,9.23 11.43,12.96 1.42,1.46 2.88,2.19 4.94,2.34 2.17,0.17 4.43,0.42 6.78,0.75 0.93,0.14 1.03,-0.1 0.32,-0.71 -7.75,-6.61 -15.16,-13.23 -21.68,-21.07 -0.49,-0.59 -0.75,-1.24 -0.8,-1.95 -0.04,-0.67 0.19,-0.78 0.68,-0.32 10.28,9.38 21.27,18.78 33.43,24.36 0.44,0.21 0.9,0.36 1.39,0.45 0.3,0.06 0.51,-0.28 0.34,-0.53 -6.77,-9.79 -12.75,-19.44 -17.96,-28.95 -0.8,-1.47 -1.5,-2.97 -2.11,-4.52 -0.96,-2.48 -0.65,-2.65 0.93,-0.51 9.22,12.44 20.01,23.68 32.71,32.36 2.03,1.39 3.94,2.05 5.74,1.98 5.76,-0.23 12.45,-0.79 20.07,-1.69 1.04,-0.12 2.08,-0.34 3.11,-0.67 0.66,-0.21 0.81,-1.07 0.27,-1.5 -2.47,-1.96 -5,-3.82 -7.57,-5.57 -7.73,-5.29 -15.79,-11.06 -24.19,-17.31 -4.9,-3.63 -9.24,-7.17 -13.02,-10.62 -10.77,-9.78 -20.52,-21.41 -28.89,-33.04 -3.95,-5.5 -7.31,-11.29 -11.03,-16.86 -5.81,-8.68 -10.57,-17.84 -14.08,-27.54 -0.47,-1.31 -0.67,-1.27 -0.59,0.12 0.45,7.71 1.73,15.63 3.82,23.74 0.13,0.5 0.13,0.79 0.01,0.86 -0.36,0.21 -0.81,0.07 -0.99,-0.3 -6.9,-14.15 -10.66,-28.56 -11.29,-43.24 -0.05,-1.24 -0.2,-1.25 -0.45,-0.04 -0.43,2.13 -0.69,4.26 -0.79,6.37 -0.53,10.81 0.6,20.89 3.39,30.23 1.71,5.74 4.33,12 7.88,18.77 3.27,6.23 6.39,11.99 9.38,17.28 0.03,0.05 0.02,0.1 -0.03,0.13 l -0.01,0.01 c -0.11,0.07 -0.21,0.06 -0.3,-0.05 z m 14.67,-26.37 c -0.42,-0.41 -0.79,-0.86 -1.1,-1.35 -6.66,-10.57 -11.95,-21.81 -15.86,-33.72 -0.05,-0.15 -0.14,-0.2 -0.29,-0.16 l -0.24,0.06 c -0.04,0.01 -0.06,0.03 -0.05,0.08 1.79,9.71 3.75,17.63 5.86,23.76 6.89,20.06 20.65,38.87 38.74,51.49 3.75,2.61 7.5,5.29 11.27,8.04 0.63,0.46 0.81,0.32 0.54,-0.41 -0.64,-1.75 -2.07,-3.27 -3.1,-4.82 -2.53,-3.81 -4.7,-7.35 -6.51,-10.62 -5.81,-10.47 -12.49,-20.64 -20.06,-30.52 -6.89,-8.98 -11.58,-15.84 -16.51,-24.31 -0.12,-0.21 -0.44,-0.17 -0.5,0.07 -0.04,0.16 -0.03,0.32 0.02,0.47 2.29,6.65 5.12,13.79 8.51,21.44 0.61,1.39 0.37,1.56 -0.72,0.5 z m -62.3211,-16.9582 c 0.5411,0.0582 1.1311,-1.3218 1.3156,-3.0877 0.1855,-1.7641 -0.0945,-3.2341 -0.6334,-3.2959 -0.5411,-0.0582 -1.1311,1.3218 -1.3156,3.0877 -0.1855,1.7641 0.0945,3.2341 0.6334,3.2959 z m -18.6551,27.03 c 0.4862,0.1082 0.9962,-0.3718 1.1462,-1.0531 0.15,-0.6887 -0.13,-1.3287 -0.6138,-1.4305 -0.4862,-0.1082 -0.9962,0.3718 -1.1462,1.0531 -0.15,0.6887 0.13,1.3287 0.6138,1.4305 z m 38.6762,36.2882 c -4.69,-8.45 -8.85,-17.99 -13.59,-27.94 -0.53,-1.11 -0.75,-1.06 -0.66,0.17 0.75,11.16 3.68,21.92 8.79,32.27 2.64,5.37 5.78,9.39 10.02,13.4 5.6,5.29 11.23,10.21 16.9,14.75 0.95,0.76 1.92,1.44 2.92,2.04 0.96,0.57 1.07,0.44 0.34,-0.4 -9.21,-10.65 -17.83,-21.87 -24.72,-34.29 z m -25.82,-12.97 -4.38,-13.78 c 0,-0.01 -0.01,-0.02 -0.02,-0.01 l -0.06,0.02 c -0.61,0.19 -0.15,3.36 1.03,7.09 l 0.11,0.34 c 1.18,3.72 2.64,6.58 3.25,6.39 l 0.05,-0.02 c 0.01,0 0.02,-0.02 0.02,-0.03 z m 11.0825,11.5345 c 0.4275,-0.2045 -1.3025,-4.7645 -3.8634,-10.2064 -2.5591,-5.4381 -4.9791,-9.6781 -5.4016,-9.4826 -0.4275,0.2045 1.3025,4.7645 3.8634,10.2064 2.5591,5.4381 4.9791,9.6781 5.4016,9.4826 z"
     id="path120"
     style="display:inline;fill:#ffffff;fill-opacity:1;stroke:none;stroke-opacity:1" />
  <path
     fill="#16151b"
     d="m 475.49452,344.02467 c -4.74,0.4 -9.97,0.88 -14.64,0.31 -8.29,-1.03 -18.51,-6.24 -23.41,-13.7 -1.98,-3.01 -3.37,-6.49 -4.17,-10.45 -0.09,-0.44 -0.67,-0.56 -0.93,-0.19 -2.37,3.36 -5.92,5.5 -10.65,6.41 -0.48,0.09 -0.84,-0.43 -0.58,-0.84 1.03,-1.67 2.31,-3.13 3.11,-4.95 5.38,-12.24 12.94,-21.06 25.83,-25.52 21.14,-7.31 34.68,5.71 41.9,24.01 2.03,5.14 2.76,9.55 2.21,13.23 -0.65,4.32 1.99,13.8 -4.6,15.11 -1.46,0.29 -2.76,0.85 -3.9,1.68 -0.35,0.25 -0.5,0.16 -0.43,-0.27 0.13,-0.83 0.66,-1.64 0.88,-2.47 0.52,-1.97 0.46,-4.09 -0.17,-6.35 -0.07,-0.26 -0.41,-0.3 -0.55,-0.08 -7.72,12.34 -19.25,17.5 -34.59,15.47 -0.09,-0.01 -0.14,-0.07 -0.13,-0.16 l 0.03,-0.49 c 0.01,-0.07 0.04,-0.1 0.11,-0.1 2.84,0.01 6.39,-0.31 10.64,-0.97 6.33,-0.98 11.14,-3.97 14.45,-8.98 0.34,-0.51 0.2,-0.75 -0.41,-0.7 z m -7.31,-38.74 c -3.91,-2.68 -11.18,-3.92 -15.5,-1.63 -0.55,0.29 -0.51,0.42 0.11,0.37 4.86,-0.39 9.95,0.11 15.28,1.5 0.49,0.13 0.53,0.05 0.11,-0.24 z"
     id="path164"
     style="display:inline;fill:#ffffff;fill-opacity:1;stroke:none;stroke-opacity:1" />
  <path
     fill="#16151b"
     d="m 531.67452,318.22467 c 0.16,-0.15 0.36,-0.24 0.6,-0.28 0.38,-0.06 0.44,0.05 0.18,0.33 l -4.86,5.21 c -0.3,0.33 -0.34,0.3 -0.12,-0.08 1.11,-1.91 2.51,-3.64 4.2,-5.18 z"
     id="path172"
     style="display:inline;fill:#ffffff;fill-opacity:1;stroke:none;stroke-opacity:1" />
  <path
     fill="#16151b"
     d="m 525.56452,331.80467 c 1.36,-4.96 5.6,-8.27 10.07,-10.81 0.37,-0.21 0.69,-0.15 0.96,0.16 l 0.17,0.19 c 0.11,0.13 0.09,0.32 -0.04,0.42 -2.01,1.6 -4.09,3.27 -6.24,5.02 -1.83,1.49 -3.31,3.28 -4.43,5.35 -0.03,0.05 -0.08,0.07 -0.14,0.04 l -0.23,-0.11 c -0.11,-0.05 -0.15,-0.14 -0.12,-0.26 z"
     id="path176"
     style="display:inline;fill:#ffffff;fill-opacity:1;stroke:none;stroke-opacity:1" />
  <path
     fill="#16151b"
     d="m 544.87452,344.94467 c 0.49,1.03 1.37,1.52 2.66,1.47 2.87,-0.1 5.73,-0.31 8.57,-0.63 0.81,-0.09 1.5,0.12 2.07,0.65 2.85,2.6 4.41,5.65 4.66,9.15 0.03,0.45 -0.05,0.87 -0.25,1.28 -1.47,2.94 -2.47,5.92 -3.02,8.93 -0.02,0.09 -0.07,0.13 -0.16,0.12 h -0.01 c -0.09,-0.01 -0.14,-0.06 -0.15,-0.15 -0.22,-3.36 -1.08,-7.57 -4.8,-8.76 -2.73,-0.88 -5.53,-1.26 -8.39,-1.15 -0.94,0.04 -1.83,-0.4 -2.37,-1.16 -2.51,-3.52 -5.44,-6.39 -8.79,-8.6 -0.54,-0.35 -0.71,-0.85 -0.52,-1.5 0.14,-0.47 0.45,-0.67 0.93,-0.6 3.32,0.48 8.36,-4.49 11.78,-5.72 1.41,-0.51 2.59,-0.79 3.56,-0.86 2.21,-0.15 2.27,0.14 0.18,0.87 -3,1.06 -8.13,2.1 -5.95,6.66 z"
     id="path184"
     style="display:inline;fill:#ffffff;fill-opacity:1;stroke:none;stroke-opacity:1" />
  <ellipse
     fill="#16151b"
     cx="357.51257"
     cy="579.66211"
     transform="rotate(-20.1)"
     rx="1.38"
     ry="0.74000001"
     id="ellipse208"
     style="display:inline;fill:#ffffff;fill-opacity:1;stroke:none;stroke-opacity:1" />
  <path
     fill="#16151b"
     d="m 542.86452,421.44467 c -0.4,1.03 -1.11,1.6 -2.13,1.73 -0.45,0.05 -0.56,-0.11 -0.31,-0.49 0.13,-0.19 0.29,-0.34 0.5,-0.44 0.2,-0.11 0.37,-0.25 0.5,-0.43 0.27,-0.37 0.6,-0.64 0.98,-0.81 0.52,-0.23 0.67,-0.09 0.46,0.44 z"
     id="path210"
     style="display:inline;fill:#ffffff;fill-opacity:1;stroke:none;stroke-opacity:1" />
  <path
     fill="#16151b"
     d="m 503.99452,447.95467 c 11.95,-5.94 22.6,-11.3 31.99,-17.08 3.1,-1.91 3.37,-1.56 0.82,1.03 -1.32,1.34 -3.07,2.75 -5.25,4.24 -9.21,6.25 -18.73,10.92 -28.56,13.99 -0.95,0.29 -1.89,0.41 -2.82,0.36 -1.8,-0.11 -1.84,-0.44 -0.12,-0.97 1.39,-0.43 2.7,-0.96 3.94,-1.57 z"
     id="path212"
     style="display:inline;fill:#ffffff;fill-opacity:1;stroke:none;stroke-opacity:1" />
  <path
     fill="#16151b"
     d="m 514.12452,437.32467 c -1.01,0.67 -1.05,0.61 -0.14,-0.18 1.48,-1.27 3.52,-2.7 6.11,-4.31 0.09,-0.05 0.16,-0.04 0.22,0.04 v 0.01 c 0.06,0.09 0.05,0.16 -0.04,0.23 -2.14,1.51 -4.19,2.92 -6.15,4.21 z"
     id="path214"
     style="display:inline;fill:#ffffff;fill-opacity:1;stroke:none;stroke-opacity:1" />
  <ellipse
     fill="#16151b"
     cx="73.033798"
     cy="586.61578"
     transform="rotate(-43)"
     rx="2.5699999"
     ry="0.95999998"
     id="ellipse194"
     style="display:inline;fill:#ffffff;fill-opacity:1;stroke:none;stroke-opacity:1" />
  <path
     fill="#16151b"
     d="m 445.08452,385.59467 c 0.92,-0.17 1.04,0.06 0.36,0.71 l -2.04,1.95 c -0.34,0.32 -0.5,0.25 -0.48,-0.22 0.06,-1.37 0.78,-2.19 2.16,-2.44 z"
     id="path196"
     style="display:inline;fill:#ffffff;fill-opacity:1;stroke:none;stroke-opacity:1" />
  <path
     fill="#16151b"
     d="m 396.12452,404.78467 c -0.08,0.08 -0.2,0.07 -0.28,-0.01 l -0.08,-0.09 c -0.42,-0.44 3.04,-4.34 7.72,-8.7 l 0.27,-0.26 c 4.68,-4.36 8.81,-7.54 9.22,-7.09 l 0.09,0.09 c 0.07,0.08 0.07,0.2 -0.01,0.28 z"
     id="path198"
     style="display:inline;fill:#ffffff;fill-opacity:1;stroke:none;stroke-opacity:1" />
  <ellipse
     fill="#16151b"
     cx="33.637104"
     cy="-559.0603"
     transform="rotate(132.6)"
     rx="4"
     ry="0.92000002"
     id="ellipse204"
     style="display:inline;fill:#ffffff;fill-opacity:1;stroke:none;stroke-opacity:1" />
  <path
     fill="#16151b"
     d="m 380.71452,438.41467 c 5.08,-2.84 10.09,-5.7 15.03,-8.59 5.79,-3.39 12.17,-6.52 19.15,-9.38 2.85,-1.17 3.01,-0.88 0.46,0.86 -8.99,6.13 -17.73,11.83 -26.23,17.09 -6.33,3.91 -12.29,7.95 -18.44,11.83 -0.98,0.61 -2.02,1.07 -3.12,1.36 -0.63,0.17 -0.7,0.03 -0.21,-0.4 4.28,-3.72 8.47,-6.44 9.66,-12.64 0.43,-2.22 1.52,-4.05 3.26,-5.5 0.49,-0.41 0.7,-0.3 0.61,0.34 l -0.65,4.7 c -0.06,0.43 0.1,0.54 0.48,0.33 z"
     id="path206"
     style="display:inline;fill:#ffffff;fill-opacity:1;stroke:none;stroke-opacity:1" />
  <path
     fill="#16151b"
     d="m 430.34452,334.24467 c 6.12,8.89 19.25,14.19 29.85,13.93 0.15,-0.01 0.23,0.06 0.24,0.21 v 0.01 c 0.01,0.11 -0.05,0.18 -0.16,0.2 -11.21,1.95 -20.51,-1.21 -27.92,-9.48 -1.23,-1.37 -2.11,-2.89 -2.64,-4.56 -0.48,-1.51 -0.27,-1.62 0.63,-0.31 z"
     id="path180"
     style="display:inline;fill:#ffffff;fill-opacity:1;stroke:none;stroke-opacity:1" />
  <path
     fill="#16151b"
     d="m 409.63452,336.01467 c 0.3,-0.34 0.85,-0.21 0.97,0.23 0.14,0.52 -0.05,0.82 -0.56,0.9 -0.34,0.05 -0.64,-0.21 -0.63,-0.55 0,-0.22 0.07,-0.41 0.22,-0.58 z"
     id="path182"
     style="display:inline;fill:#ffffff;fill-opacity:1;stroke:none;stroke-opacity:1" />
  <path
     fill="#16151b"
     d="m 431.03452,364.53467 c -8.36,-1.17 -14.57,-6.06 -15.77,-14.73 -0.09,-0.68 0.07,-0.75 0.48,-0.2 1.17,1.55 1.87,3.47 3.11,5.03 3.18,3.97 7.51,7.11 12.41,9.02 2.43,0.95 2.35,1.25 -0.23,0.88 z"
     id="path186"
     style="display:inline;fill:#ffffff;fill-opacity:1;stroke:none;stroke-opacity:1" />
  <path
     fill="#16151b"
     d="m 409.18452,355.89467 c -0.05,-0.71 0.16,-0.79 0.63,-0.26 l 2.27,2.6 c 0.31,0.36 0.08,0.91 -0.39,0.94 -1.53,0.1 -2.36,-0.99 -2.51,-3.28 z"
     id="path188"
     style="display:inline;fill:#ffffff;fill-opacity:1;stroke:none;stroke-opacity:1" />
  <ellipse
     fill="#16151b"
     cx="368.04407"
     cy="-394.36539"
     transform="rotate(88.5)"
     rx="1.16"
     ry="0.5"
     id="ellipse190"
     style="display:inline;fill:#ffffff;fill-opacity:1;stroke:none;stroke-opacity:1" />
  <ellipse
     fill="#16151b"
     cx="217.61163"
     cy="-450.8223"
     transform="rotate(102.6)"
     rx="1.61"
     ry="0.91000003"
     id="ellipse170"
     style="display:inline;fill:#ffffff;fill-opacity:1;stroke:none;stroke-opacity:1" />
  <path
     fill="#16151b"
     d="m 460.89452,260.71467 c -2.57,-1.04 -5.04,-2.03 -7.41,-2.96 -1.77,-0.7 -1.71,-0.92 0.18,-0.66 9.02,1.23 16.93,4.75 23.72,10.54 0.21,0.18 0.36,0.4 0.43,0.66 0.1,0.37 -0.3,0.68 -0.63,0.49 -5.91,-3.37 -11.34,-6.06 -16.29,-8.07 z"
     id="path142"
     style="display:inline;fill:#ffffff;fill-opacity:1;stroke:none;stroke-opacity:1" />
  <path
     fill="#16151b"
     d="m 458.71452,279.18467 c 4.3,-0.59 11.72,0.3 15.22,3.69 0.52,0.49 0.44,0.61 -0.23,0.36 -4.88,-1.87 -9.47,-3.19 -14.89,-3.61 -0.15,-0.01 -0.23,-0.1 -0.23,-0.25 0,-0.04 0.01,-0.07 0.02,-0.1 0.03,-0.05 0.06,-0.08 0.11,-0.09 z"
     id="path156"
     style="display:inline;fill:#ffffff;fill-opacity:1;stroke:none;stroke-opacity:1" />
  <path
     fill="#16151b"
     d="m 429.50452,295.83467 c -1.35,1.19 -1.51,1.04 -0.5,-0.44 4.8,-7.01 11.3,-11.78 19.51,-14.31 0.16,-0.05 0.27,0 0.33,0.16 l 0.16,0.42 c 0.02,0.06 0,0.1 -0.06,0.13 -3.55,1.78 -6.93,3.7 -10.12,5.76 -3.47,2.23 -6.22,5.55 -9.32,8.28 z"
     id="path158"
     style="display:inline;fill:#ffffff;fill-opacity:1;stroke:none;stroke-opacity:1" />
  <path
     fill="#16151b"
     d="m 463.09452,284.55467 c 7.45,0 14.04,4.02 17.8,10.55 0.6,1.03 0.46,1.15 -0.43,0.36 -5.42,-4.86 -10.61,-7.51 -18.4,-7.53 -10.85,-0.02 -22.01,4.8 -30.04,11.76 -0.02,0.02 -0.04,0.02 -0.06,0 l -0.22,-0.22 c -0.11,-0.11 -0.11,-0.22 -0.01,-0.33 8.69,-9.73 19.15,-14.6 31.36,-14.59 z"
     id="path160"
     style="display:inline;fill:#ffffff;fill-opacity:1;stroke:none;stroke-opacity:1" />
  <path
     fill="#16151b"
     d="m 497.70452,303.84467 c 1.48,5.93 2.01,12.2 1.73,18.36 -0.01,0.12 -0.07,0.18 -0.18,0.18 h -0.01 c -0.13,0.01 -0.21,-0.06 -0.22,-0.19 -0.59,-6.55 -1.88,-12.96 -3.87,-19.25 -1.15,-3.63 -2.62,-6.81 -4.41,-9.52 -1.03,-1.57 -0.77,-1.84 0.8,-0.81 3.11,2.03 5.25,7.6 6.16,11.23 z"
     id="path162"
     style="display:inline;fill:#ffffff;fill-opacity:1;stroke:none;stroke-opacity:1" />
  <rect
     fill="#16151b"
     x="473.77344"
     y="-21.058426"
     transform="rotate(31.7)"
     width="13.84"
     height="1.6"
     rx="0.76999998"
     id="rect134"
     style="display:inline;fill:#ffffff;fill-opacity:1;stroke:none;stroke-opacity:1" />
  <path
     fill="#16151b"
     d="m 363.98452,249.14467 c 3.5,0.36 26.15,3.98 25.9,9.23 -0.02,0.49 -0.25,0.63 -0.7,0.41 -7.83,-3.93 -16.44,-6.89 -25.81,-8.88 -0.09,-0.01 -0.13,-0.12 -0.09,-0.2 l 0.13,-0.26 c 0.12,-0.23 0.31,-0.33 0.57,-0.3 z"
     id="path136"
     style="display:inline;fill:#ffffff;fill-opacity:1;stroke:none;stroke-opacity:1" />
  <ellipse
     fill="#16151b"
     cx="362.76947"
     cy="153.50604"
     transform="rotate(19.8)"
     rx="1.29"
     ry="1.04"
     id="ellipse152"
     style="display:inline;fill:#ffffff;fill-opacity:1;stroke:none;stroke-opacity:1" />
  <path
     fill="#16151b"
     d="m 347.97452,300.14467 c -16.24,-10.75 -35.21,-16.59 -53.63,-22.39 -0.03,-0.01 -0.06,-0.03 -0.08,-0.06 -0.02,-0.03 -0.02,-0.06 -0.01,-0.09 0.01,-0.05 0.04,-0.07 0.08,-0.06 9.66,1.87 19.15,4.37 28.47,7.52 7.07,2.39 13.33,5.73 19.47,9.81 2.19,1.46 4.21,3.07 6.06,4.84 0.06,0.07 0.06,0.13 0.01,0.2 l -0.17,0.2 c -0.06,0.07 -0.13,0.08 -0.2,0.03 z"
     id="path154"
     style="display:inline;fill:#ffffff;fill-opacity:1;stroke:none;stroke-opacity:1" />
  <ellipse
     fill="#16151b"
     cx="308.95361"
     cy="174.5141"
     transform="rotate(18)"
     rx="5.1900001"
     ry="2.04"
     id="ellipse144"
     style="display:inline;fill:#ffffff;fill-opacity:1;stroke:none;stroke-opacity:1" />
  <path
     fill="#16151b"
     d="m 223.77452,262.71467 c -0.35,0.1 -0.71,-0.1 -0.81,-0.44 l -0.08,-0.3 c -0.37,-1.26 -0.09,-2.45 0.62,-2.66 l 0.31,-0.09 c 0.71,-0.2 1.58,0.65 1.95,1.92 l 0.08,0.29 c 0.1,0.35 -0.1,0.71 -0.44,0.81 z"
     id="path146"
     style="display:inline;fill:#ffffff;fill-opacity:1;stroke:none;stroke-opacity:1" />
  <rect
     fill="#16151b"
     x="293.63995"
     y="232.9165"
     transform="rotate(6)"
     width="3.02"
     height="2.72"
     rx="0.95999998"
     id="rect148"
     style="display:inline;fill:#ffffff;fill-opacity:1;stroke:none;stroke-opacity:1" />
  <rect
     fill="#16151b"
     x="304.89459"
     y="230.97986"
     transform="rotate(6.3)"
     width="2.9400001"
     height="2.98"
     rx="0.88999999"
     id="rect150"
     style="display:inline;fill:#ffffff;fill-opacity:1;stroke:none;stroke-opacity:1" />
  <path
     fill="#16151b"
     d="m 304.59452,402.41467 c 12.9,-1.69 24.94,-5.27 36.92,-10.22 0.22,-0.09 0.44,0.12 0.36,0.35 -0.03,0.11 -0.08,0.21 -0.13,0.31 -0.06,0.11 -0.14,0.19 -0.23,0.25 -5.91,3.93 -12.34,6.75 -19.27,8.45 -13.3,3.26 -26.74,4.12 -40.33,2.59 -0.2,-0.02 -0.35,-0.2 -0.33,-0.4 l 0.02,-0.28 c 0.03,-0.34 0.21,-0.51 0.55,-0.5 7.44,0.07 14.85,0.44 22.44,-0.55 z"
     id="path200"
     style="display:inline;fill:#ffffff;fill-opacity:1;stroke:none;stroke-opacity:1" />
  <rect
     fill="#16151b"
     x="279.39536"
     y="397.09296"
     transform="rotate(-0.4)"
     width="22.360001"
     height="1.16"
     rx="0.25999999"
     id="rect202"
     style="display:inline;fill:#ffffff;fill-opacity:1;stroke:none;stroke-opacity:1" />
  <path
     fill="#16151b"
     d="m 174.51452,160.46467 c 2.89,1.85 4.77,4.78 7.34,7.12 4.28,3.89 8.7,7.74 13.26,11.57 0.23,0.2 0.26,0.54 0.07,0.78 l -0.26,0.32 c -0.28,0.35 -0.79,0.43 -1.16,0.19 -5.52,-3.62 -10.12,-8.69 -14.91,-13.21 -1.83,-1.73 -3.39,-3.62 -4.7,-5.68 -0.09,-0.14 -0.14,-0.29 -0.17,-0.46 -0.02,-0.16 -0.01,-0.31 0.04,-0.46 0.07,-0.2 0.31,-0.29 0.49,-0.17 z"
     id="path126"
     style="display:inline;fill:#ffffff;fill-opacity:1;stroke:none;stroke-opacity:1" />
  <path
     fill="#16151b"
     d="m 261.64452,370.95467 c 0.56,0.16 0.56,0.3 -0.01,0.41 -0.55,0.11 -1.09,0.07 -1.61,-0.1 -5.98,-1.99 -12.63,-5.14 -19.94,-9.45 -0.14,-0.08 -0.16,-0.18 -0.07,-0.31 l 0.23,-0.29 c 0.05,-0.08 0.12,-0.1 0.21,-0.06 6.49,2.99 12.72,5.94 18.71,8.86 0.75,0.37 1.58,0.68 2.48,0.94 z"
     id="path192"
     style="display:inline;fill:#ffffff;fill-opacity:1;stroke:none;stroke-opacity:1" />
  <path
     fill="#16151b"
     d="m 378.22452,571.12467 c 0.02,0.02 0.02,0.05 0,0.07 l -0.02,0.03 c -0.74,0.74 -6.09,-3.38 -11.94,-9.19 l -0.23,-0.23 c -5.86,-5.82 -10.01,-11.13 -9.28,-11.88 l 0.03,-0.02 c 0.02,-0.02 0.05,-0.02 0.07,0 z"
     id="path222"
     style="display:inline;fill:#ffffff;fill-opacity:1;stroke:none;stroke-opacity:1" />
  <ellipse
     fill="#16151b"
     cx="710.13306"
     cy="116.21518"
     transform="rotate(46.6)"
     rx="3.5599999"
     ry="0.33000001"
     id="ellipse230"
     style="display:inline;fill:#ffffff;fill-opacity:1;stroke:none;stroke-opacity:1" />
</svg>
