<?xml version="1.0" encoding="UTF-8" standalone="no"?>
<svg
   width="91.981529"
   height="91.626221"
   viewBox="0 0 91.981529 91.626221"
   fill="none"
   version="1.1"
   id="svg34"
   sodipodi:docname="Pygmalion.svg"
   inkscape:version="1.1.2 (0a00cf5339, 2022-02-04)"
   xmlns:inkscape="http://www.inkscape.org/namespaces/inkscape"
   xmlns:sodipodi="http://sodipodi.sourceforge.net/DTD/sodipodi-0.dtd"
   xmlns="http://www.w3.org/2000/svg"
   xmlns:svg="http://www.w3.org/2000/svg">
  <sodipodi:namedview
     id="namedview36"
     pagecolor="#ffffff"
     bordercolor="#666666"
     borderopacity="1.0"
     inkscape:pageshadow="2"
     inkscape:pageopacity="0.0"
     inkscape:pagecheckerboard="true"
     showgrid="false"
     inkscape:zoom="2.6866267"
     inkscape:cx="249.94168"
     inkscape:cy="45.596211"
     inkscape:window-width="2490"
     inkscape:window-height="1376"
     inkscape:window-x="70"
     inkscape:window-y="140"
     inkscape:window-maximized="1"
     inkscape:current-layer="svg34" />
  <path
     d="M 30.430427,7.495233 C 30.430427,3.355723 33.786327,0 37.925627,0 h 46.5606 c 4.1396,0 7.4953,3.355723 7.4953,7.495233 v 46.56069 c 0,4.1396 -3.3557,7.4953 -7.4953,7.4953 h -43.1356 c -1.787,0.2336 -3.6514,0.8164 -4.6568,2.1455 -1.4244,1.8845 -1.9394,4.3455 -2.113,6.1987 v 14.9625 c 0,3.738 -3.03,6.7683 -6.7681,6.7683 H 6.768237 C 3.030227,91.626223 0,88.595923 0,84.857923 v -21.0447 c 0,-3.7379 3.030227,-6.7679 6.768237,-6.7679 h 11.31429 c 1.5289,-0.0637 7.7863,-0.475 10.031,-2.9735 1.6441,-1.8301 2.1576,-5.2704 2.3169,-7.0877 z"
     fill="url(#paint0_linear_11_2)"
     id="path2"
     style="fill:url(#paint0_linear_11_2)" />
  <defs
     id="defs32">
    <linearGradient
       id="paint0_linear_11_2"
       x1="92.753197"
       y1="-1.78348"
       x2="-2.1354599"
       y2="94.729897"
       gradientUnits="userSpaceOnUse"
       gradientTransform="translate(-0.771973,-0.196777)">
      <stop
         stop-color="#5C73FF"
         id="stop24" />
      <stop
         offset="0.989583"
         stop-color="#97BEFF"
         id="stop26" />
    </linearGradient>
    <clipPath
       id="clip0_11_2">
      <rect
         width="500"
         height="91.817596"
         fill="#ffffff"
         transform="translate(0.5,0.0913086)"
         id="rect29"
         x="0"
         y="0" />
    </clipPath>
  </defs>
</svg>
